<?xml version="1.0" encoding="UTF-8"?>
<svg width="20px" height="20px" viewBox="0 0 20 20" version="1.1" xmlns="http://www.w3.org/2000/svg" xmlns:xlink="http://www.w3.org/1999/xlink">
    <!-- Generator: Sketch 48.2 (47327) - http://www.bohemiancoding.com/sketch -->
    <title>add</title>
    <desc>Created with Sketch.</desc>
    <defs>
        <polygon id="path-1" points="0.00304568528 0.0260253165 19.9740102 0.0260253165 19.9740102 19.9494684 0.00304568528 19.9494684"></polygon>
    </defs>
    <g id="Missions-and-Vision-Copy-2" stroke="none" stroke-width="1" fill="none" fill-rule="evenodd" transform="translate(-1316.000000, -689.000000)">
        <g id="add" transform="translate(1316.000000, 689.000000)">
            <mask id="mask-2" fill="white">
                <use xlink:href="#path-1"></use>
            </mask>
            <g id="Clip-2"></g>
            <path d="M18.89,8.59762025 L11.3804569,8.59762025 L11.3804569,1.10708861 C11.3804569,0.765924051 10.9158883,0.0260253165 9.98690355,0.0260253165 C9.05791878,0.0260253165 8.59335025,0.765924051 8.59335025,1.10708861 L8.59335025,8.59782278 L1.08385787,8.59782278 C0.74177665,8.59762025 0,9.06101266 0,9.98764557 C0,10.9142785 0.74177665,11.3776709 1.08385787,11.3776709 L8.5935533,11.3776709 L8.5935533,18.8681519 C8.5935533,19.2093671 9.05791878,19.9494684 9.98690355,19.9494684 C10.9160914,19.9494684 11.3804569,19.2093671 11.3804569,18.8681519 L11.3804569,11.3776709 L18.890203,11.3776709 C19.2322335,11.3776709 19.9740102,10.9142785 19.9740102,9.98764557 C19.9740102,9.06101266 19.2320305,8.59762025 18.89,8.59762025 Z" id="Fill-1" fill="#000000" mask="url(#mask-2)"></path>
        </g>
    </g>
</svg>