<?xml version="1.0" encoding="UTF-8"?>
<svg width="14px" height="6px" viewBox="0 0 14 6" version="1.1" xmlns="http://www.w3.org/2000/svg" xmlns:xlink="http://www.w3.org/1999/xlink">
    <!-- Generator: Sketch 48.2 (47327) - http://www.bohemiancoding.com/sketch -->
    <title>Fill 1 Copy</title>
    <desc>Created with Sketch.</desc>
    <defs></defs>
    <g id="News-item" stroke="none" stroke-width="1" fill="none" fill-rule="evenodd" transform="translate(-88.000000, -173.000000)">
        <path d="M101.595987,175.581319 L89.3793433,175.581319 L91.1808333,173.714516 C91.33874,173.551144 91.33874,173.285991 91.1808333,173.122619 C91.0230141,172.959127 90.7671375,172.959127 90.6095808,173.122619 L88.1183644,175.703984 C87.9605452,175.867355 87.9605452,176.132509 88.1183644,176.29588 L90.6095808,178.877366 C90.6884175,178.959172 90.7918706,179 90.8952071,179 C90.9985435,179 91.1019675,178.959172 91.1808333,178.877366 C91.33874,178.713873 91.33874,178.448841 91.1808333,178.285348 L89.3793433,176.418515 L101.595987,176.418515 C101.819081,176.418515 102,176.231057 102,175.999932 C102,175.768776 101.819081,175.581319 101.595987,175.581319 Z" id="Fill-1-Copy" fill="#1b8862" transform="translate(95.000000, 176.000000) scale(-1, 1) translate(-95.000000, -176.000000) "></path>
    </g>
</svg>