<?xml version="1.0" encoding="UTF-8"?>
<svg width="14px" height="6px" viewBox="0 0 14 6" version="1.1" xmlns="http://www.w3.org/2000/svg" xmlns:xlink="http://www.w3.org/1999/xlink">
    <!-- Generator: Sketch 48.2 (47327) - http://www.bohemiancoding.com/sketch -->
    <title>arrow_bread copy</title>
    <desc>Created with Sketch.</desc>
    <defs></defs>
    <g id="Consumer-Loan" stroke="none" stroke-width="1" fill="none" fill-rule="evenodd" transform="translate(-1222.000000, -845.000000)">
        <g id="arrow_bread-copy" transform="translate(1222.000000, 845.000000)" fill="#FFFFFF" fill-rule="nonzero">
            <path d="M13.595987,2.581319 L1.3793433,2.581319 L3.1808333,0.714516 C3.33874,0.551144 3.33874,0.285991 3.1808333,0.122619 C3.0230141,-0.040873 2.7671375,-0.040873 2.6095808,0.122619 L0.1183644,2.703984 C-0.0394548,2.867355 -0.0394548,3.132509 0.1183644,3.29588 L2.6095808,5.877366 C2.6884175,5.959172 2.7918706,6 2.8952071,6 C2.9985435,6 3.1019675,5.959172 3.1808333,5.877366 C3.33874,5.713873 3.33874,5.448841 3.1808333,5.285348 L1.3793433,3.418515 L13.595987,3.418515 C13.819081,3.418515 14,3.231057 14,2.999932 C14,2.768776 13.819081,2.581319 13.595987,2.581319 Z" id="Fill-1-Copy" transform="translate(7.000000, 3.000000) scale(-1, 1) translate(-7.000000, -3.000000) "></path>
        </g>
    </g>
</svg>