<?xml version="1.0" encoding="UTF-8"?>
<svg width="30px" height="12px" viewBox="0 0 30 12" version="1.1" xmlns="http://www.w3.org/2000/svg" xmlns:xlink="http://www.w3.org/1999/xlink">
    <!-- Generator: Sketch 48.2 (47327) - http://www.bohemiancoding.com/sketch -->
    <title>Fill 1</title>
    <desc>Created with Sketch.</desc>
    <defs></defs>
    <g id="3" stroke="none" stroke-width="1" fill="none" fill-rule="evenodd" transform="translate(-615.000000, -595.000000)">
        <g id="Group-6" transform="translate(434.000000, 163.000000)" fill="#fff">
            <g id="Group-5" transform="translate(10.000000, 408.000000)">
                <path d="M200.134259,29.1626385 L173.955736,29.1626385 L177.816071,25.4290312 C178.154443,25.1022884 178.154443,24.5719812 177.816071,24.2452384 C177.477887,23.9182539 176.92958,23.9182539 176.591959,24.2452384 L171.253638,29.4079676 C170.915454,29.7347104 170.915454,30.2650176 171.253638,30.5917604 L176.591959,35.7547314 C176.760895,35.9183445 176.98258,36 177.204015,36 C177.42545,36 177.647073,35.9183445 177.816071,35.7547314 C178.154443,35.4277468 178.154443,34.8976813 177.816071,34.5706968 L173.955736,30.837029 L200.134259,30.837029 C200.612316,30.837029 201,30.462115 201,29.999864 C201,29.5375526 200.612316,29.1626385 200.134259,29.1626385 Z" id="Fill-1" transform="translate(186.000000, 30.000000) scale(-1, 1) translate(-186.000000, -30.000000) "></path>
            </g>
        </g>
    </g>
</svg>