<?xml version="1.0" encoding="UTF-8"?>
<svg width="22px" height="22px" viewBox="0 0 22 22" version="1.1" xmlns="http://www.w3.org/2000/svg" xmlns:xlink="http://www.w3.org/1999/xlink">
    <!-- Generator: Sketch 48.2 (47327) - http://www.bohemiancoding.com/sketch -->
    <title>call_to_bank</title>
    <desc>Created with Sketch.</desc>
    <defs></defs>
    <g id="Missions-and-Vision-Copy-2" stroke="none" stroke-width="1" fill="none" fill-rule="evenodd" transform="translate(-560.000000, -545.000000)">
        <path d="M581.952054,562.046224 C581.890204,561.858756 581.49417,561.582587 580.764673,561.218437 C580.567135,561.104086 580.286172,560.947782 579.922022,560.750005 C579.556674,560.551509 579.226087,560.369075 578.929302,560.202223 C578.632516,560.03657 578.353471,559.874512 578.093124,559.718209 C578.051891,559.687283 577.921717,559.596426 577.702604,559.444677 C577.48445,559.293887 577.298899,559.182413 577.148109,559.109535 C576.997319,559.036417 576.848447,558.999978 576.702452,558.999978 C576.494606,558.999978 576.23426,559.147891 575.921412,559.444677 C575.609524,559.741462 575.323047,560.064618 575.0627,560.413904 C574.802354,560.763191 574.526185,561.085387 574.234913,561.382173 C573.942683,561.679917 573.702953,561.82807 573.515724,561.82807 C573.42199,561.82807 573.305002,561.8017 573.163561,561.750158 C573.024038,561.697897 572.9164,561.653787 572.843282,561.617348 C572.771123,561.580669 572.645745,561.507791 572.468824,561.398235 C572.291664,561.288678 572.192416,561.228746 572.171799,561.218437 C570.744688,560.427089 569.520867,559.520671 568.500098,558.499902 C567.479329,557.479133 566.572911,556.255072 565.781563,554.827961 C565.771254,554.806386 565.711322,554.708096 565.601765,554.531176 C565.492209,554.354255 565.419091,554.228637 565.382652,554.155759 C565.346213,554.082641 565.302103,553.975962 565.249602,553.83548 C565.1983,553.694998 565.17193,553.577771 565.17193,553.484276 C565.17193,553.297047 565.320802,553.057317 565.617827,552.765087 C565.914613,552.473815 566.237768,552.197646 566.586096,551.9373 C566.935382,551.676953 567.257339,551.390236 567.554364,551.078588 C567.852109,550.76574 568.000022,550.505394 568.000022,550.296589 C568.000022,550.151313 567.963583,550.002441 567.890465,549.851651 C567.817348,549.700142 567.706113,549.51555 567.554364,549.296437 C567.403574,549.078283 567.312717,548.948109 567.280833,548.905917 C567.125488,548.64557 566.96343,548.367484 566.796818,548.070698 C566.629966,547.773913 566.448251,547.442367 566.249755,547.077978 C566.052218,546.713828 565.895914,546.431906 565.781563,546.234369 C565.416454,545.50583 565.141005,545.109556 564.952817,545.046987 C564.880658,545.016062 564.771102,545 564.625106,545 C564.344143,545 563.977117,545.052501 563.523788,545.156544 C563.070698,545.260347 562.713741,545.369903 562.453394,545.484254 C561.931982,545.703367 561.380364,546.338172 560.796862,547.390825 C560.26586,548.369402 560,549.338629 560,550.296589 C560,550.577553 560.01774,550.850845 560.054419,551.116945 C560.090858,551.382805 560.156304,551.682467 560.250038,552.015931 C560.343772,552.349155 560.419527,552.596557 560.476583,552.757655 C560.533878,552.918514 560.640558,553.207867 560.796862,553.624758 C560.953405,554.041408 561.0469,554.296241 561.077825,554.390694 C561.443173,555.411463 561.874687,556.322676 562.374763,557.125052 C563.197036,558.457709 564.31993,559.836156 565.742247,561.257753 C567.163844,562.679111 568.541332,563.802005 569.874709,564.624997 C570.676365,565.125074 571.588537,565.557786 572.609306,565.922175 C572.7028,565.9531 572.958592,566.046595 573.375242,566.203138 C573.790934,566.359442 574.080288,566.466122 574.241386,566.523178 C574.403443,566.581432 574.650605,566.656228 574.984069,566.750921 C575.317533,566.844415 575.617195,566.909142 575.883055,566.945581 C576.147957,566.98226 576.421489,567.000959 576.702452,567.000959 C577.661371,567.000959 578.629639,566.734859 579.609175,566.203857 C580.66087,565.620595 581.296633,565.068018 581.514787,564.547325 C581.630097,564.286978 581.738695,563.93026 581.843456,563.476931 C581.947499,563.023842 582,562.656816 582,562.375853 C582,562.229618 581.983938,562.120061 581.952054,562.046224 Z" id="call_to_bank" fill="#11B3F1"></path>
    </g>
</svg>