<?xml version="1.0" encoding="UTF-8"?>
<svg width="23px" height="22px" viewBox="0 0 23 22" version="1.1" xmlns="http://www.w3.org/2000/svg" xmlns:xlink="http://www.w3.org/1999/xlink">
    <!-- Generator: Sketch 48.2 (47327) - http://www.bohemiancoding.com/sketch -->
    <title>chat</title>
    <desc>Created with Sketch.</desc>
    <defs></defs>
    <g id="Missions-and-Vision-Copy-2" stroke="none" stroke-width="1" fill="none" fill-rule="evenodd" transform="translate(-560.000000, -474.000000)">
        <path d="M571.5,474.654383 C565.158708,474.654383 560,479.190596 560,484.765957 C560,486.713191 560.630583,488.601915 561.8285,490.232723 C561.600417,492.681277 560.993792,494.498851 560.112125,495.35966 C559.996167,495.473404 559.966458,495.647064 560.041208,495.791234 C560.104938,495.919489 560.239583,496 560.383812,496 C560.400583,496 560.419271,495.998128 560.436042,495.996255 C560.591292,495.974255 564.198458,495.467787 566.807521,493.99566 C568.288146,494.578894 569.866042,494.875191 571.5,494.875191 C577.841292,494.875191 583,490.340851 583,484.765957 C583,479.190596 577.841292,474.654383 571.5,474.654383 Z M566.133812,486.263362 C565.287604,486.263362 564.600958,485.590255 564.600958,484.765957 C564.600958,483.939319 565.287604,483.266213 566.133812,483.266213 C566.979542,483.266213 567.666667,483.939319 567.666667,484.765957 C567.666667,485.590255 566.979542,486.263362 566.133812,486.263362 Z M571.5,486.263362 C570.653792,486.263362 569.967146,485.590255 569.967146,484.765957 C569.967146,483.939319 570.653792,483.266213 571.5,483.266213 C572.346208,483.266213 573.032854,483.939319 573.032854,484.765957 C573.032854,485.590255 572.346208,486.263362 571.5,486.263362 Z M576.866188,486.263362 C576.020458,486.263362 575.333333,485.590255 575.333333,484.765957 C575.333333,483.939319 576.020458,483.266213 576.866188,483.266213 C577.712396,483.266213 578.399042,483.939319 578.399042,484.765957 C578.399042,485.590255 577.712396,486.263362 576.866188,486.263362 Z" id="chat" fill="#11B3F1"></path>
    </g>
</svg>