<?xml version="1.0" encoding="UTF-8"?>
<svg width="37px" height="31px" viewBox="0 0 37 31" version="1.1" xmlns="http://www.w3.org/2000/svg" xmlns:xlink="http://www.w3.org/1999/xlink">
    <!-- Generator: Sketch 48.2 (47327) - http://www.bohemiancoding.com/sketch -->
    <title>f_cars</title>
    <desc>Created with Sketch.</desc>
    <defs></defs>
    <g id="Consumer-Loan" stroke="none" stroke-width="1" fill="none" fill-rule="evenodd" transform="translate(-99.000000, -405.000000)">
        <g id="f_cars" transform="translate(99.000000, 405.000000)" fill="#1b8862">
            <path d="M33.5204854,29.4901301 L32.5819259,29.4901301 C31.2486998,29.4901301 30.7732534,28.5290594 30.7732534,27.62921 L30.7732534,25.7154201 L34.7968051,25.7154201 C34.9963743,25.7137922 35.1951501,25.6899406 35.3892378,25.6444315 L35.3892378,27.62921 C35.3892378,28.5290594 34.9145127,29.4901301 33.5204854,29.4901301 Z M12.3093158,24.2054795 L24.6185595,24.2054795 L24.6185595,21.1857397 L12.3093158,21.1857397 L12.3093158,24.2054795 Z M6.15462183,27.62921 C6.15462183,28.5283516 5.67996881,29.4901301 4.28594152,29.4901301 L3.34738207,29.4901301 C2.01336257,29.4901301 1.53863743,28.5290594 1.53863743,27.62921 L1.53863743,25.6444315 C1.73272515,25.6899406 1.93150097,25.7137215 2.13107018,25.7154201 L6.15462183,25.7154201 L6.15462183,27.62921 Z M1.53863743,14.3912192 C1.53863743,14.1178813 1.98335867,13.6362489 2.3079922,13.6362489 L34.619883,13.6362489 C34.9576433,13.6362489 35.3892378,14.059774 35.3892378,14.3912192 L35.3892378,23.8944886 C35.3892378,24.1904041 34.8960487,24.2054795 34.7968051,24.2054795 L26.157269,24.2054795 L26.157269,20.4307694 C26.157269,20.0138265 25.8128012,19.6757991 25.3879142,19.6757991 L11.539961,19.6757991 C11.1150741,19.6757991 10.7706062,20.0138265 10.7706062,20.4307694 L10.7706062,24.2054795 L2.13107018,24.2054795 C2.03182651,24.2054795 1.53863743,24.1904041 1.53863743,23.8944886 L1.53863743,14.3912192 Z M6.88091813,2.56040183 C7.05401754,2.07275342 7.86715205,1.55707763 8.46261404,1.55707763 L28.4652612,1.55707763 C29.0607232,1.55707763 29.8738577,2.07275342 30.0331092,2.5196347 L32.8303957,12.126379 L4.09747953,12.126379 L6.88091813,2.56040183 Z M34.619883,12.126379 L34.4306277,12.126379 L31.4994776,2.06369406 C31.1117349,0.970484018 29.7223236,0.0472077626 28.4652612,0.0472077626 L8.46261404,0.0472077626 C7.20555166,0.0472077626 5.81614035,0.970484018 5.41454971,2.10446119 L2.49724756,12.126379 L2.3079922,12.126379 C1.16474269,12.126379 0,13.2693447 0,14.3912192 L0,27.62921 C0,29.6139178 1.37635673,31 3.40738986,31 L4.34594932,31 C6.31697466,31 7.69333138,29.6139178 7.69333138,27.62921 L7.69333138,25.7154201 L29.2345439,25.7154201 L29.2345439,27.62921 C29.2345439,29.6139178 30.6109006,31 32.6419337,31 L33.5812865,31 C35.5523119,31 36.9286686,29.6139178 36.9286686,27.62921 L36.9286686,14.3912192 C36.9278752,13.2270913 35.806191,12.126379 34.619883,12.126379 Z" id="Fill-1"></path>
            <path d="M6.53933528,16.6560594 C7.60151657,16.6560594 8.46261404,17.5010571 8.46261404,18.543379 C8.46261404,19.5857717 7.60151657,20.4307694 6.53933528,20.4307694 C5.47708187,20.4307694 4.61598441,19.5857717 4.61598441,18.543379 C4.61598441,17.5010571 5.47708187,16.6560594 6.53933528,16.6560594 Z M6.53933528,21.9406393 C8.45129045,21.9406393 10.0013236,20.4196575 10.0013236,18.543379 C10.0013236,16.6671712 8.45129045,15.1461187 6.53933528,15.1461187 C4.62730799,15.1461187 3.07734698,16.6671712 3.07734698,18.543379 C3.07734698,20.4196575 4.62730799,21.9406393 6.53933528,21.9406393 Z" id="Fill-4"></path>
            <path d="M30.38854,16.6560594 C31.4507934,16.6560594 32.3118908,17.5010571 32.3118908,18.543379 C32.3118908,19.5857717 31.4507934,20.4307694 30.38854,20.4307694 C29.3263587,20.4307694 28.4652612,19.5857717 28.4652612,18.543379 C28.4652612,17.5010571 29.3263587,16.6560594 30.38854,16.6560594 Z M30.38854,21.9406393 C32.3005673,21.9406393 33.8505283,20.4196575 33.8505283,18.543379 C33.8505283,16.6671712 32.3005673,15.1461187 30.38854,15.1461187 C28.4765848,15.1461187 26.9265517,16.6671712 26.9265517,18.543379 C26.9265517,20.4196575 28.4765848,21.9406393 30.38854,21.9406393 Z" id="Fill-5"></path>
        </g>
    </g>
</svg>