<?xml version="1.0" encoding="UTF-8"?>
<svg width="42px" height="32px" viewBox="0 0 42 32" version="1.1" xmlns="http://www.w3.org/2000/svg" xmlns:xlink="http://www.w3.org/1999/xlink">
    <!-- Generator: Sketch 48.2 (47327) - http://www.bohemiancoding.com/sketch -->
    <title>f_education</title>
    <desc>Created with Sketch.</desc>
    <defs></defs>
    <g id="Consumer-Loan" stroke="none" stroke-width="1" fill="none" fill-rule="evenodd" transform="translate(-616.000000, -406.000000)">
        <g id="f_education" transform="translate(617.000000, 407.000000)" fill="#1b8862" stroke="#FFFFFF" stroke-width="0.3">
            <path d="M39.4923902,9.51649038 L20.3598049,0.088125 C20.1207805,-0.029375 19.8399024,-0.029375 19.6013659,0.088125 L0.468780488,9.51649038 C0.181365854,9.658125 0,9.94725962 0,10.2638942 C0,10.5805288 0.181365854,10.8697596 0.468780488,11.0113942 L6.59219512,14.0289904 L6.59219512,19.2347596 C6.59219512,20.0640865 6.9542439,20.8600481 7.58536585,21.4188942 C10.9942439,24.4323558 15.396,26.0921635 19.9805854,26.0921635 C24.5647805,26.0921635 28.9668293,24.4327404 32.3760976,21.4185096 C33.0068293,20.8600481 33.368878,20.0640865 33.368878,19.2347596 L33.368878,14.0289904 L35.4020488,13.0272596 L35.4020488,19.5330288 C34.4862439,19.8721635 33.8326829,20.7438942 33.8326829,21.7633173 C33.8326829,22.7034135 34.3882927,23.5177404 35.1924878,23.9053365 L33.7336585,28.8723558 C33.6597073,29.1247596 33.7103415,29.3966827 33.870439,29.6069712 C34.030439,29.8169712 34.2816585,29.9405288 34.5483902,29.9405288 L37.952,29.9405288 C38.2183415,29.9405288 38.4694634,29.8169712 38.629561,29.6069712 C38.7900488,29.3970673 38.8402927,29.1247596 38.7663415,28.8723558 L37.3075122,23.9049519 C38.1117073,23.5177404 38.6673171,22.7034135 38.6673171,21.7633173 C38.6673171,20.7438942 38.0137561,19.8721635 37.0979512,19.5326442 L37.0979512,12.1911058 L39.4923902,11.0113942 C39.7793171,10.8697596 39.9611707,10.5805288 39.9611707,10.2638942 C39.9611707,9.94725962 39.7793171,9.658125 39.4923902,9.51649038 Z M31.6726829,19.2347596 C31.6726829,19.5904327 31.516,19.9330288 31.243122,20.1745673 C28.1459512,22.9126442 24.1463415,24.4207212 19.9805854,24.4207212 C15.8148293,24.4207212 11.815122,22.9126442 8.71834146,20.1749519 C8.44478049,19.9330288 8.28809756,19.5904327 8.28809756,19.2347596 L8.28809756,14.8646635 L19.6013659,20.4396635 C19.7206829,20.4987019 19.8506341,20.5279327 19.9805854,20.5279327 C20.1105366,20.5279327 20.2404878,20.4987019 20.3598049,20.4396635 L31.6726829,14.8646635 L31.6726829,19.2347596 Z M35.6764878,28.2690865 L36.2499512,26.3160096 L36.8235122,28.2690865 L35.6764878,28.2690865 Z M36.2499512,22.474375 C35.8520976,22.474375 35.5285854,22.1554327 35.5285854,21.7633173 C35.5285854,21.3715865 35.8520976,21.0526442 36.2499512,21.0526442 C36.6475122,21.0526442 36.9714146,21.3715865 36.9714146,21.7633173 C36.9714146,22.1554327 36.6479024,22.474375 36.2499512,22.474375 Z M36.0853659,10.8216827 L20.0548293,9.43158654 C19.5883902,9.39139423 19.1767805,9.73091346 19.1357073,10.1907212 C19.0949268,10.6504327 19.4398049,11.0561058 19.9062439,11.0965865 L33.1897561,12.2486058 L19.9805854,18.7577404 L2.74390244,10.2638942 L19.9805854,1.77004808 L37.216878,10.2638942 L36.0853659,10.8216827 Z" id="Fill-1"></path>
        </g>
    </g>
</svg>