<?xml version="1.0" encoding="UTF-8"?>
<svg width="37px" height="37px" viewBox="0 0 37 37" version="1.1" xmlns="http://www.w3.org/2000/svg" xmlns:xlink="http://www.w3.org/1999/xlink">
    <!-- Generator: Sketch 48.2 (47327) - http://www.bohemiancoding.com/sketch -->
    <title>f_mortgage</title>
    <desc>Created with Sketch.</desc>
    <defs></defs>
    <g id="Consumer-Loan" stroke="none" stroke-width="1" fill="none" fill-rule="evenodd" transform="translate(-275.000000, -401.000000)">
        <g id="f_mortgage" transform="translate(275.000000, 401.000000)" fill="#1b8862">
            <path d="M4.31664258,33.9227251 L12.3333574,33.9227251 C13.505,33.9227251 14.7383574,33.8611306 15.91,33.6764912 L24.05,32.4456101 C24.2966426,32.4456101 24.4816426,32.4456101 24.7283574,32.3840156 L24.79,32.3840156 C25.2833574,32.3224932 25.715,32.0763314 26.1466426,31.7070526 L26.2083574,31.6454581 L35.5816426,24.383 C35.8283574,24.1983606 35.8283574,23.8290819 35.705,23.6444425 C35.2116426,22.905885 34.965,22.5981287 32.375,23.8906043 L27.0716426,27.1525906 C25.6533574,27.8911481 22.94,27.9526706 20.0416426,27.8911481 C19.9183574,27.8911481 19.795,27.8911481 19.7333574,27.8911481 C19.3633574,27.8911481 19.1166426,27.8911481 18.9316426,27.8911481 L18.9933574,26.6601949 C19.1783574,26.6601949 19.425,26.6601949 19.6716426,26.6601949 C20.4733574,26.5986725 21.2133574,26.4755556 21.3983574,26.1678713 C21.46,26.0447544 21.3983574,25.6754756 21.1516426,25.3061969 C20.2883574,24.0752437 19.055,23.4598031 17.6366426,23.4598031 L15.2316426,23.4598031 C13.6283574,23.4598031 12.1483574,22.9674074 10.9766426,22.1058051 C9.25,20.7517349 5.79664258,22.7212456 4.31664258,23.7675595 L4.31664258,33.9227251 Z M12.3333574,35.1536062 L3.08335742,35.1536062 L3.08335742,23.1520468 L3.33,22.9674074 C3.57664258,22.782768 8.75664258,18.8438187 11.7166426,21.0594912 C12.7033574,21.7980487 13.9366426,22.1673275 15.2316426,22.1673275 L17.6366426,22.1673275 C19.425,22.1673275 21.09,23.0290019 22.0766426,24.4445224 C22.6316426,25.2446745 22.755,25.9216374 22.4466426,26.4755556 C23.9883574,26.4755556 25.6533574,26.3525107 26.3933574,25.9216374 L31.6966426,22.6597232 C34.41,21.2441306 35.52,21.2441306 36.63,22.7212456 C37.185,23.4598031 37.0616426,24.5676394 36.3216426,25.1830799 L27.01,32.5071326 C26.3933574,33.0610507 25.715,33.4303294 24.975,33.5534464 C24.7283574,33.6149688 24.42,33.6764912 24.1116426,33.6764912 L16.095,34.9074444 C14.8616426,35.0305614 13.5666426,35.1536062 12.3333574,35.1536062 Z" id="Fill-1"></path>
            <path d="M1.23335742,35.7691189 L3.08335742,35.7691189 L3.08335742,22.2288499 L1.23335742,22.2288499 L1.23335742,35.7691189 Z M0,37 L4.31664258,37 L4.31664258,20.9979688 L0,20.9979688 L0,37 Z" id="Fill-3"></path>
            <path d="M11.2233574,29.7375419 C10.8533574,29.7375419 10.6066426,29.4913801 10.6066426,29.1221014 C10.6066426,27.5833918 11.7783574,26.6601949 13.69,26.6601949 L19.6716426,26.6601949 C20.0416426,26.6601949 20.2883574,26.9064288 20.2883574,27.2757076 C20.2883574,27.6449864 20.0416426,27.8911481 19.6716426,27.8911481 L13.69,27.8911481 C11.84,27.8911481 11.84,28.814345 11.84,29.1221014 C11.84,29.4913801 11.5933574,29.7375419 11.2233574,29.7375419" id="Fill-4"></path>
            <path d="M22.5083574,26.5371501 L23.2483574,26.5371501 C24.8516426,26.4755556 25.9,26.2909162 26.5166426,25.983232 L29.6616426,24.0752437 L29.6616426,11.766 C29.6616426,11.3967212 29.9083574,11.1504873 30.2783574,11.1504873 L31.7583574,11.1504873 L21.8916426,2.22627485 C20.535,0.995321637 18.4383574,0.995321637 17.02,2.22627485 L7.15335742,11.1504873 L8.695,11.1504873 C9.065,11.1504873 9.31164258,11.3967212 9.31164258,11.766 L9.31164258,20.3824561 C10.2983574,20.3209337 11.1,20.5670955 11.7783574,21.0594912 C12.765,21.7980487 13.9983574,22.1673275 15.2933574,22.1673275 L17.6983574,22.1673275 C19.4866426,22.1673275 21.1516426,23.0290019 22.1383574,24.4445224 C22.6933574,25.3061969 22.8166426,25.983232 22.5083574,26.5371501 Z M19.61,27.7680312 C19.3016426,27.7680312 18.9933574,27.5218694 18.9933574,27.1525906 C18.9933574,26.8448343 19.24,26.5371501 19.61,26.5371501 C20.6583574,26.5371501 21.275,26.2909162 21.3983574,26.0447544 C21.46,25.9216374 21.3983574,25.5523587 21.09,25.1830799 C20.4116426,24.0752437 19.1166426,23.4598031 17.6983574,23.4598031 L15.2933574,23.4598031 C13.69,23.4598031 12.21,22.9674074 11.0383574,22.1058051 C10.4833574,21.6749318 9.74335742,21.6134094 8.81835742,21.7365263 C8.63335742,21.7980487 8.44835742,21.7365263 8.325,21.6134094 C8.20164258,21.4902924 8.07835742,21.305653 8.07835742,21.1210136 L8.07835742,12.3814405 L5.55,12.3814405 C5.30335742,12.3814405 5.05664258,12.1968012 4.995,12.0121618 C4.93335742,11.766 4.995,11.5197661 5.18,11.3351267 L16.2183574,1.30307797 C18.0683574,-0.358676413 20.8433574,-0.358676413 22.755,1.30307797 L33.855,11.2736043 C34.04,11.4582437 34.1016426,11.7044055 34.04,11.9506394 C33.9783574,12.1968012 33.7316426,12.3199181 33.485,12.3199181 L31.0183574,12.3199181 L31.0183574,24.3214776 C31.0183574,24.506117 30.895,24.7522788 30.71,24.8753957 L27.1333574,27.0910682 C26.3316426,27.5218694 25.16,27.7065088 23.31,27.8296257 L19.61,27.7680312 Z" id="Fill-5"></path>
            <path d="M16.0333574,9.30409357 C15.355,9.30409357 14.8,9.8580117 14.8,10.5350468 C14.8,11.2120819 15.355,11.766 16.0333574,11.766 C16.7116426,11.766 17.2666426,11.2120819 17.2666426,10.5350468 C17.2666426,9.8580117 16.7116426,9.30409357 16.0333574,9.30409357 Z M16.0333574,12.9968811 C14.6766426,12.9968811 13.5666426,11.8890448 13.5666426,10.5350468 C13.5666426,9.18104873 14.6766426,8.07321248 16.0333574,8.07321248 C17.39,8.07321248 18.5,9.18104873 18.5,10.5350468 C18.5,11.8890448 17.39,12.9968811 16.0333574,12.9968811 Z" id="Fill-7"></path>
            <path d="M23.4333574,16.6896686 C22.755,16.6896686 22.2,17.2435867 22.2,17.9206218 C22.2,18.5976569 22.755,19.151575 23.4333574,19.151575 C24.1116426,19.151575 24.6666426,18.5976569 24.6666426,17.9206218 C24.6666426,17.2435867 24.1116426,16.6896686 23.4333574,16.6896686 Z M23.4333574,20.3824561 C22.0766426,20.3824561 20.9666426,19.2746199 20.9666426,17.9206218 C20.9666426,16.5666238 22.0766426,15.4587875 23.4333574,15.4587875 C24.79,15.4587875 25.9,16.5666238 25.9,17.9206218 C25.9,19.2746199 24.79,20.3824561 23.4333574,20.3824561 Z" id="Fill-8"></path>
            <path d="M14.1833574,20.3824561 C13.9983574,20.3824561 13.875,20.3209337 13.7516426,20.1978168 C13.505,19.951655 13.505,19.5823762 13.7516426,19.3362144 L24.8516426,8.25785185 C25.0983574,8.01161793 25.4683574,8.01161793 25.715,8.25785185 C25.9616426,8.50401365 25.9616426,8.8732924 25.715,9.11945419 L14.615,20.1978168 C14.4916426,20.3209337 14.3683574,20.3824561 14.1833574,20.3824561" id="Fill-9"></path>
        </g>
    </g>
</svg>