<?xml version="1.0" encoding="UTF-8"?>
<svg width="32px" height="35px" viewBox="0 0 32 35" version="1.1" xmlns="http://www.w3.org/2000/svg" xmlns:xlink="http://www.w3.org/1999/xlink">
    <!-- Generator: Sketch 48.2 (47327) - http://www.bohemiancoding.com/sketch -->
    <title>f_repair</title>
    <desc>Created with Sketch.</desc>
    <defs></defs>
    <g id="Consumer-Loan" stroke="none" stroke-width="1" fill="none" fill-rule="evenodd" transform="translate(-450.000000, -404.000000)">
        <g id="f_repair" transform="translate(451.000000, 405.000000)" fill="#1b8862" stroke="#1b8862" stroke-width="0.2">
            <path d="M28.3478261,2.89973046 L28.3132174,2.89973046 L28.3132174,2.29478976 C28.3132174,1.05893531 27.3301739,0.0533692722 26.1215652,0.0533692722 L6.08695652,0.0533692722 C4.87869565,0.0533692722 3.89573913,1.05893531 3.89573913,2.29478976 L3.89573913,2.89973046 L3.86069565,2.89973046 C2.95956522,2.89973046 2.22626087,3.64992453 2.22626087,4.5720566 L2.22626087,5.1769973 L2.19121739,5.1769973 C0.983043478,5.1769973 0,6.18247439 0,7.41841779 L0,11.9725067 C0,13.2084501 0.983043478,14.2139272 2.19121739,14.2139272 L14.4347826,14.2139272 C15.0675652,14.2139272 15.5825217,14.7406819 15.5825217,15.3879623 L15.5825217,16.562442 L14.9911304,16.562442 C14.09,16.562442 13.3566957,17.3125472 13.3566957,18.2343235 L13.3566957,30.1893073 C13.3566957,31.738973 14.5893043,32.9998221 16.1042609,32.9998221 C17.6195652,32.9998221 18.8522609,31.738973 18.8522609,30.1893073 L18.8522609,18.2343235 C18.8522609,17.3125472 18.1188696,16.562442 17.2173913,16.562442 L16.626,16.562442 L16.626,15.3879623 C16.626,14.1521078 15.6430435,13.1465418 14.4347826,13.1465418 L2.19121739,13.1465418 C1.55843478,13.1465418 1.04347826,12.6197871 1.04347826,11.9725067 L1.04347826,7.41841779 C1.04347826,6.77104852 1.55843478,6.24438275 2.19121739,6.24438275 L2.22626087,6.24438275 L2.22626087,6.84887871 C2.22626087,7.77109973 2.95956522,8.52120485 3.86069565,8.52120485 L3.89573913,8.52120485 L3.89573913,9.12614555 C3.89573913,10.3620889 4.87869565,11.367566 6.08695652,11.367566 L26.1215652,11.367566 C27.3301739,11.367566 28.3132174,10.3620889 28.3132174,9.12614555 L28.3132174,8.52120485 L28.3478261,8.52120485 C29.2493043,8.52120485 29.9826957,7.77109973 29.9826957,6.84887871 L29.9826957,4.5720566 C29.9826957,3.64992453 29.2493043,2.89973046 28.3478261,2.89973046 Z M16.1042609,31.9324367 C15.1647826,31.9324367 14.4001739,31.1506658 14.4001739,30.1893073 L14.4001739,19.9066496 L17.8087826,19.9066496 L17.8087826,30.1893073 C17.8087826,31.1506658 17.0441739,31.9324367 16.1042609,31.9324367 Z M17.8087826,18.2343235 L17.8087826,18.8392642 L14.4001739,18.8392642 L14.4001739,18.2343235 C14.4001739,17.9011213 14.6653913,17.6298275 14.9911304,17.6298275 L17.2173913,17.6298275 C17.5434783,17.6298275 17.8087826,17.9011213 17.8087826,18.2343235 Z M3.86069565,7.45381941 C3.53495652,7.45381941 3.26973913,7.18243666 3.26973913,6.84887871 L3.26973913,4.5720566 C3.26973913,4.23849865 3.53495652,3.9671159 3.86069565,3.9671159 L3.89573913,3.9671159 L3.89573913,7.45381941 L3.86069565,7.45381941 Z M27.2697391,9.12614555 C27.2697391,9.77342588 26.7547826,10.3001806 26.1215652,10.3001806 L6.08695652,10.3001806 C5.45417391,10.3001806 4.93921739,9.77342588 4.93921739,9.12614555 L4.93921739,2.29478976 C4.93921739,1.64750943 5.45417391,1.12075472 6.08695652,1.12075472 L26.1215652,1.12075472 C26.7547826,1.12075472 27.2697391,1.64750943 27.2697391,2.29478976 L27.2697391,9.12614555 Z M28.9392174,6.84887871 C28.9392174,7.18243666 28.673913,7.45381941 28.3478261,7.45381941 L28.3132174,7.45381941 L28.3132174,3.9671159 L28.3478261,3.9671159 C28.673913,3.9671159 28.9392174,4.23849865 28.9392174,4.5720566 L28.9392174,6.84887871 Z" id="Fill-1"></path>
            <path d="M16.1042609,29.6556146 C15.9666957,29.6556146 15.8321739,29.7125418 15.7357391,29.8119865 C15.6382609,29.9109865 15.5825217,30.0482345 15.5825217,30.1893073 C15.5825217,30.3293127 15.6382609,30.467628 15.7357391,30.5662722 C15.8321739,30.6659838 15.9673913,30.723 16.1042609,30.723 C16.2414783,30.723 16.3763478,30.6659838 16.4731304,30.5662722 C16.5703478,30.4669164 16.626,30.3293127 16.626,30.1893073 C16.626,30.0489461 16.5703478,29.9109865 16.4731304,29.8119865 C16.3763478,29.7125418 16.2414783,29.6556146 16.1042609,29.6556146 Z" id="Fill-4"></path>
        </g>
    </g>
</svg>