<?xml version="1.0" encoding="UTF-8"?>
<svg width="9px" height="16px" viewBox="0 0 9 16" version="1.1" xmlns="http://www.w3.org/2000/svg" xmlns:xlink="http://www.w3.org/1999/xlink">
    <!-- Generator: Sketch 48.2 (47327) - http://www.bohemiancoding.com/sketch -->
    <title>facebook</title>
    <desc>Created with Sketch.</desc>
    <defs></defs>
    <g id="3" stroke="none" stroke-width="1" fill="none" fill-rule="evenodd" transform="translate(-1340.000000, -758.000000)">
        <g id="Group" transform="translate(1340.000000, 758.000000)" fill="#FFFFFF">
            <path d="M8.44378933,0.7333414 L6.47687512,0.730434783 C4.26737549,0.730434783 2.83907982,2.16998533 2.83907982,4.39761665 L2.83907982,6.08868646 L0.861318294,6.08868646 C0.691114046,6.08868646 0.552465626,6.22413482 0.552465626,6.39213728 L0.552465626,8.84241547 C0.552465626,9.00964284 0.691114046,9.14586629 0.861318294,9.14586629 L2.83907982,9.14586629 L2.83907982,15.3278532 C2.83907982,15.4950806 2.97772824,15.6313041 3.14872138,15.6313041 L5.72801588,15.6313041 C5.89900902,15.6313041 6.03765744,15.4950806 6.03765744,15.3278532 L6.03765744,9.14586629 L8.34971352,9.14586629 C8.52070666,9.14586629 8.65876341,9.00964284 8.65876341,8.84241547 L8.66014398,6.39213728 C8.66014398,6.31191465 8.62701036,6.23479241 8.56922375,6.17724139 C8.51143714,6.12046547 8.43294202,6.08868646 8.35050242,6.08868646 L6.03765744,6.08868646 L6.03765744,4.65514292 C6.03765744,3.96627468 6.20490333,3.61651176 7.11785288,3.61651176 L8.44300044,3.61573666 C8.61399358,3.61573666 8.7518531,3.47951321 8.7518531,3.31228584 L8.7518531,1.03776109 C8.7518531,0.869564853 8.61399358,0.734116498 8.44378933,0.7333414 Z" id="facebook"></path>
        </g>
    </g>
</svg>