<?xml version="1.0" encoding="UTF-8"?>
<svg width="19px" height="19px" viewBox="0 0 19 19" version="1.1" xmlns="http://www.w3.org/2000/svg" xmlns:xlink="http://www.w3.org/1999/xlink">
    <!-- Generator: Sketch 48.2 (47327) - http://www.bohemiancoding.com/sketch -->
    <title>icon</title>
    <desc>Created with Sketch.</desc>
    <defs></defs>
    <g id="Consumer-Loan" stroke="none" stroke-width="1" fill="none" fill-rule="evenodd" transform="translate(-41.000000, -1127.000000)">
        <path d="M50.449,1127.097 C45.231,1127.097 41,1131.328 41,1136.546 C41,1141.765 45.231,1146 50.449,1146 C55.668,1146 59.903,1141.765 59.903,1136.546 C59.903,1131.328 55.668,1127.097 50.449,1127.097 Z M52.418,1141.746 C51.93,1141.937 51.543,1142.082 51.254,1142.183 C50.965,1142.285 50.629,1142.336 50.246,1142.336 C49.656,1142.336 49.196,1142.191 48.871,1141.902 C48.543,1141.617 48.383,1141.25 48.383,1140.808 C48.383,1140.636 48.395,1140.461 48.418,1140.281 C48.442,1140.101 48.481,1139.902 48.535,1139.675 L49.145,1137.523 C49.199,1137.316 49.246,1137.121 49.281,1136.941 C49.317,1136.753 49.336,1136.586 49.336,1136.433 C49.336,1136.16 49.278,1135.968 49.164,1135.859 C49.051,1135.75 48.836,1135.699 48.516,1135.699 C48.36,1135.699 48.196,1135.722 48.031,1135.769 C47.867,1135.82 47.727,1135.867 47.61,1135.91 L47.77,1135.25 C48.168,1135.086 48.551,1134.949 48.914,1134.832 C49.278,1134.714 49.621,1134.656 49.946,1134.656 C50.531,1134.656 50.981,1134.8 51.297,1135.082 C51.613,1135.363 51.774,1135.73 51.774,1136.183 C51.774,1136.277 51.762,1136.441 51.742,1136.675 C51.719,1136.914 51.68,1137.128 51.621,1137.324 L51.016,1139.468 C50.965,1139.64 50.922,1139.839 50.879,1140.058 C50.84,1140.277 50.821,1140.445 50.821,1140.558 C50.821,1140.843 50.887,1141.039 51.012,1141.14 C51.141,1141.246 51.36,1141.296 51.676,1141.296 C51.824,1141.296 51.989,1141.269 52.176,1141.218 C52.36,1141.168 52.496,1141.121 52.582,1141.082 L52.418,1141.746 Z M52.313,1133.043 C52.028,1133.304 51.688,1133.437 51.289,1133.437 C50.895,1133.437 50.551,1133.304 50.266,1133.043 C49.985,1132.781 49.84,1132.461 49.84,1132.086 C49.84,1131.714 49.985,1131.394 50.266,1131.128 C50.551,1130.867 50.895,1130.734 51.289,1130.734 C51.688,1130.734 52.028,1130.867 52.313,1131.128 C52.594,1131.394 52.735,1131.714 52.735,1132.086 C52.735,1132.461 52.594,1132.781 52.313,1133.043 Z" id="icon" fill="#1b8862"></path>
    </g>
</svg>