<?xml version="1.0" encoding="UTF-8"?>
<svg width="17px" height="16px" viewBox="0 0 17 16" version="1.1" xmlns="http://www.w3.org/2000/svg" xmlns:xlink="http://www.w3.org/1999/xlink">
    <!-- Generator: Sketch 48.2 (47327) - http://www.bohemiancoding.com/sketch -->
    <title>instagram</title>
    <desc>Created with Sketch.</desc>
    <defs></defs>
    <g id="3" stroke="none" stroke-width="1" fill="none" fill-rule="evenodd" transform="translate(-1390.000000, -758.000000)">
        <g id="Group" transform="translate(1340.000000, 758.000000)" fill="#FFFFFF">
            <g id="instagram" transform="translate(50.658537, 0.000000)">
                <path d="M11.4614246,0 L4.36846406,0 C1.95951198,0 0,1.9290175 0,4.30033915 L0,11.2823848 C0,13.6537064 1.95951198,15.5826087 4.36846406,15.5826087 L11.4614246,15.5826087 C13.8703767,15.5826087 15.8298886,13.6532456 15.8298886,11.2823848 L15.8298886,4.30033915 C15.8298886,1.9290175 13.8703767,0 11.4614246,0 Z M14.4253884,11.2823848 C14.4253884,12.8913395 13.0959118,14.2000482 11.4614246,14.2000482 L4.36846406,14.2000482 C2.73397685,14.2000482 1.40450029,12.8913395 1.40450029,11.2823848 L1.40450029,4.30033915 C1.40450029,2.69138439 2.73397685,1.38256048 4.36846406,1.38256048 L11.4614246,1.38256048 C13.0959118,1.38256048 14.4253884,2.69138439 14.4253884,4.30033915 L14.4253884,11.2823848 Z" id="Fill-1"></path>
                <path d="M7.91494432,3.89565217 C5.73261167,3.89565217 3.95747216,5.64318745 3.95747216,7.79102489 C3.95747216,9.93942125 5.73261167,11.6869565 7.91494432,11.6869565 C10.0968228,11.6869565 11.8724165,9.93942125 11.8724165,7.79102489 C11.8724165,5.64318745 10.0968228,3.89565217 7.91494432,3.89565217 Z M7.91494432,10.3450891 C6.48443146,10.3450891 5.32008165,9.19973975 5.32008165,7.79102489 C5.32008165,6.38286895 6.48397725,5.23662531 7.91494432,5.23662531 C9.34591138,5.23662531 10.509807,6.38286895 10.509807,7.79102489 C10.509807,9.19973975 9.34545718,10.3450891 7.91494432,10.3450891 Z M12.202262,2.59710145 C12.4630806,2.59710145 12.7181657,2.70048079 12.9017505,2.88200339 C13.0862346,3.0627512 13.1915739,3.3143371 13.1915739,3.57123586 C13.1915739,3.82669572 13.0862346,4.07839231 12.9017505,4.25991491 C12.7173787,4.44066272 12.4630806,4.54492754 12.202262,4.54492754 C11.9422304,4.54492754 11.6866957,4.44066272 11.5035606,4.25991491 C11.3190764,4.07839231 11.2128378,3.82713846 11.2128378,3.57123586 C11.2128378,3.3143371 11.3186267,3.0627512 11.5035606,2.88200339 C11.6870329,2.70048079 11.9422304,2.59710145 12.202262,2.59710145 Z" id="Combined-Shape"></path>
            </g>
        </g>
    </g>
</svg>