<?xml version="1.0" encoding="UTF-8"?>
<svg width="180px" height="24px" viewBox="0 0 180 24" version="1.1" xmlns="http://www.w3.org/2000/svg" xmlns:xlink="http://www.w3.org/1999/xlink">
    <!-- Generator: Sketch 48.2 (47327) - http://www.bohemiancoding.com/sketch -->
    <title>Group</title>
    <desc>Created with Sketch.</desc>
    <defs></defs>
    <g id="online-banking-image_background" stroke="none" stroke-width="1" fill="none" fill-rule="evenodd" transform="translate(-427.000000, -131.000000)">
        <g id="Group-2" transform="translate(422.000000, 131.000000)" fill="#FFFFFF">
            <g id="Group" transform="translate(5.000000, 0.000000)">
                <path d="M23.4872372,22 L1.99794549,21.9881204 C0.654998369,21.9881204 1.05775424,21.6605833 1.77818273,21.4302043 C3.31652203,20.9210793 7.72417623,19.0784711 11.4973403,16.1696704 C12.3520207,15.5150205 12.9014276,15.0423828 14.0981513,15.3448879 C18.1881329,16.3996252 21.8753586,18.8480921 24.1101833,20.6665168 C24.7570725,21.1998252 25.7947461,22 23.4872372,22 M13.9391012,1.05332542 L24.6715617,19.5392293 C25.3432491,20.6907003 24.8669539,20.5091123 24.2931765,20.0118669 C23.0844813,18.9452501 19.2749751,16.0602085 14.8425228,14.2782711 C13.8416189,13.8663041 13.1575325,13.6359251 12.8278883,12.4602706 C11.704704,8.41145423 11.9975785,4.0109173 12.4738736,1.18654646 C12.6085531,0.350308678 12.7791472,-0.934807631 13.9391012,1.05332542 M0.471577702,19.7454249 L11.2288364,1.27140062 C11.9000962,0.119929623 11.985607,0.629054605 11.8269844,1.36855864 C11.4973403,2.94430046 10.8991922,7.64776675 11.5584805,12.3508088 C11.704704,13.4174256 11.8389559,14.1331705 10.9842755,14.9935917 C8.00550676,17.9876709 4.02455146,19.9397409 1.32625815,20.945687 C0.532717924,21.2363125 -0.675977238,21.7212541 0.471577702,19.7454249" id="Fill-1"></path>
                <path d="M159.928334,5 C159.54885,5 159.39064,4.69860465 159.580381,4.34449612 L161.160827,1.27906977 C161.350015,0.906976744 161.649841,0.906976744 161.839583,1.27906977 L163.419475,4.34449612 C163.608663,4.69860465 163.451006,5 163.087565,5 L159.928334,5 Z" id="Fill-4"></path>
                <path d="M180,7.22443398 C180,7.39355721 180,7.53715241 179.974827,7.66707187 C179.962674,7.78468318 179.9375,7.88861875 179.900608,7.96657043 C179.851129,8.04497797 179.813803,8.11016563 179.752172,8.13614952 C179.702259,8.17489743 179.640627,8.18811731 179.565975,8.18811731 L174.868519,8.18811731 L174.868519,23.4269868 C174.868519,23.5049385 174.855933,23.5701261 174.818606,23.6225498 C174.781714,23.6745176 174.731801,23.7132655 174.64543,23.7524692 C174.558625,23.7784531 174.447081,23.817201 174.29821,23.8308768 C174.161926,23.8564048 173.976163,23.8696247 173.765661,23.8696247 C173.554291,23.8696247 173.381115,23.8564048 173.232244,23.8308768 C173.083373,23.817201 172.972263,23.7784531 172.885024,23.7524692 C172.798653,23.7132655 172.736587,23.6745176 172.711848,23.6225498 C172.674522,23.5701261 172.649782,23.5049385 172.649782,23.4269868 L172.649782,8.18811731 L167.952327,8.18811731 C167.890261,8.18811731 167.828195,8.17489743 167.778717,8.13614952 C167.716651,8.11016563 167.667172,8.04497797 167.642433,7.96657043 C167.605106,7.88861875 167.580367,7.78468318 167.555628,7.66707187 C167.530888,7.53715241 167.518301,7.39355721 167.518301,7.22443398 C167.518301,7.04209087 167.530888,6.89895153 167.555628,6.7685762 C167.580367,6.63820088 167.605106,6.53380945 167.642433,6.45585777 C167.667172,6.36468622 167.716651,6.31271843 167.778717,6.27351466 C167.828195,6.23476675 167.890261,6.22154688 167.952327,6.22154688 L179.565975,6.22154688 C179.640627,6.22154688 179.702259,6.23476675 179.752172,6.27351466 C179.813803,6.31271843 179.851129,6.36468622 179.900608,6.45585777 C179.9375,6.53380945 179.962674,6.63820088 179.974827,6.7685762 C180,6.89895153 180,7.04209087 180,7.22443398 Z M162.635083,23.4269868 C162.635083,23.5049385 162.622496,23.5701261 162.585604,23.6225498 C162.548278,23.6745176 162.486212,23.7132655 162.399407,23.7524692 C162.325189,23.7784531 162.201058,23.817201 162.064774,23.8308768 C161.915903,23.8564048 161.742727,23.8696247 161.531791,23.8696247 C161.321289,23.8696247 161.147245,23.8564048 160.999242,23.8308768 C160.850371,23.817201 160.738393,23.7784531 160.652022,23.7524692 C160.565217,23.7132655 160.503151,23.6745176 160.465825,23.6225498 C160.428499,23.5701261 160.416346,23.5049385 160.416346,23.4269868 L160.416346,6.57301322 C160.416346,6.49506154 160.428499,6.42987388 160.477978,6.37790609 C160.515304,6.32548245 160.577369,6.28673454 160.664174,6.24753077 C160.763566,6.22154688 160.875111,6.19556298 161.011395,6.16957909 C161.160265,6.14313934 161.333441,6.13037532 161.531791,6.13037532 C161.742727,6.13037532 161.915903,6.14313934 162.064774,6.16957909 C162.201058,6.19556298 162.325189,6.22154688 162.399407,6.24753077 C162.486212,6.28673454 162.548278,6.32548245 162.585604,6.37790609 C162.622496,6.42987388 162.635083,6.49506154 162.635083,6.57301322 L162.635083,23.4269868 Z M152.223685,14.8436408 C152.223685,13.8927215 152.111707,13.0074457 151.888618,12.1869017 C151.665963,11.3659018 151.30659,10.6629692 150.835238,10.063972 C150.351734,9.46451907 149.744533,9.0086613 149.0132,8.66995897 C148.281868,8.33125665 147.340033,8.16213341 146.187262,8.16213341 L143.919046,8.16213341 L143.919046,21.8378666 L146.199848,21.8378666 C147.277967,21.8378666 148.170323,21.6947272 148.914242,21.4212126 C149.645141,21.134478 150.252776,20.7046042 150.748433,20.1315909 C151.24409,19.5453578 151.603897,18.8292053 151.851725,17.9434736 C152.099554,17.0709619 152.223685,16.0420909 152.223685,14.8436408 Z M154.553533,14.7392494 C154.553533,16.2636377 154.36777,17.5920073 153.99581,18.7252697 C153.623851,19.8712962 153.078715,20.8089956 152.372556,21.5515879 C151.665963,22.2937244 150.785759,22.8535177 149.756685,23.2314238 C148.715893,23.59611 147.488903,23.7784531 146.063564,23.7784531 L142.51888,23.7784531 C142.320531,23.7784531 142.134334,23.7132655 141.960724,23.5701261 C141.787114,23.4269868 141.700742,23.19222 141.700742,22.8407537 L141.700742,7.17246619 C141.700742,6.82054399 141.787114,6.57301322 141.960724,6.42987388 C142.134334,6.28673454 142.320531,6.22154688 142.51888,6.22154688 L146.311393,6.22154688 C147.761471,6.22154688 148.976308,6.41710986 149.980208,6.80732411 C150.971522,7.19845008 151.814833,7.7714633 152.496253,8.50083574 C153.16552,9.24297219 153.673763,10.1419237 154.020984,11.1840146 C154.36777,12.2388695 154.553533,13.4240997 154.553533,14.7392494 Z M135.63958,22.8147698 C135.63958,22.983893 135.627427,23.1274882 135.614406,23.2446437 C135.590101,23.3613433 135.564927,23.4661905 135.528035,23.5569062 C135.478556,23.6353138 135.429077,23.6872816 135.379164,23.7264853 C135.317533,23.7652332 135.255033,23.7784531 135.180815,23.7784531 L127.161764,23.7784531 C126.963415,23.7784531 126.765065,23.7132655 126.591455,23.5701261 C126.417845,23.4269868 126.331474,23.19222 126.331474,22.8407537 L126.331474,7.17246619 C126.331474,6.82054399 126.417845,6.57301322 126.591455,6.42987388 C126.765065,6.28673454 126.963415,6.22154688 127.161764,6.22154688 L135.09401,6.22154688 C135.156075,6.22154688 135.218141,6.23476675 135.280207,6.27351466 C135.341838,6.31271843 135.379164,6.36468622 135.416491,6.45585777 C135.453383,6.53380945 135.478556,6.63820088 135.503296,6.75535633 C135.528035,6.87296763 135.528035,7.02887099 135.528035,7.2112141 C135.528035,7.38079319 135.528035,7.51071266 135.503296,7.64108798 C135.478556,7.75824343 135.453383,7.86263486 135.416491,7.94058654 C135.379164,8.01899407 135.329686,8.07096186 135.280207,8.11016563 C135.218141,8.14891354 135.156075,8.16213341 135.09401,8.16213341 L128.549777,8.16213341 L128.549777,13.6716305 L134.164762,13.6716305 C134.238546,13.6716305 134.301046,13.6843945 134.350525,13.7235982 C134.41259,13.762802 134.462069,13.8275338 134.499395,13.8927215 C134.536287,13.971129 134.561461,14.0750646 134.585766,14.1926759 C134.598353,14.3225954 134.61094,14.4789546 134.61094,14.6485337 C134.61094,14.8176569 134.598353,14.9480322 134.585766,15.0651877 C134.561461,15.1823431 134.536287,15.2735147 134.499395,15.3519222 C134.462069,15.4298739 134.41259,15.4818417 134.350525,15.5078256 C134.301046,15.5470293 134.238546,15.5602492 134.164762,15.5602492 L128.549777,15.5602492 L128.549777,21.8378666 L135.180815,21.8378666 C135.255033,21.8378666 135.317533,21.8510865 135.379164,21.8898344 C135.429077,21.9290381 135.478556,21.9810059 135.528035,22.0594135 C135.564927,22.1373651 135.590101,22.2413007 135.614406,22.358912 C135.627427,22.4760675 135.63958,22.6324267 135.63958,22.8147698 Z M117.320241,11.0796232 C117.320241,10.4022185 117.171371,9.81644127 116.874063,9.33414375 C116.588909,8.86552196 116.093252,8.52681963 115.398811,8.31849263 C115.188309,8.25330497 114.940481,8.20133718 114.680066,8.17489743 C114.407498,8.14891354 114.048125,8.13614952 113.614533,8.13614952 L111.742583,8.13614952 L111.742583,14.0623006 L113.911407,14.0623006 C114.494303,14.0623006 115.002546,13.9843489 115.423985,13.8275338 C115.845423,13.6843945 116.204796,13.4760675 116.489951,13.2025528 C116.774671,12.942258 116.985608,12.6295396 117.121892,12.2648534 C117.246023,11.9001671 117.320241,11.509497 117.320241,11.0796232 Z M120.66701,23.4269868 C120.66701,23.5049385 120.654423,23.5701261 120.629684,23.6225498 C120.592358,23.6745176 120.542879,23.7264853 120.456508,23.7652332 C120.369269,23.791673 120.245137,23.817201 120.096267,23.8436408 C119.935243,23.8564048 119.736894,23.8696247 119.476913,23.8696247 C119.253824,23.8696247 119.067627,23.8564048 118.931777,23.8436408 C118.782906,23.817201 118.671362,23.791673 118.584557,23.7524692 C118.497752,23.7132655 118.435686,23.6480778 118.386207,23.583346 C118.336728,23.5049385 118.299402,23.4137669 118.26251,23.3093755 L116.725193,19.1679076 C116.551582,18.69883 116.353233,18.2561921 116.167904,17.865522 C115.969555,17.474396 115.733879,17.1361495 115.473464,16.849415 C115.200896,16.5626804 114.891002,16.3415894 114.531195,16.1852302 C114.171822,16.028871 113.726078,15.9509193 113.217834,15.9509193 L111.742583,15.9509193 L111.742583,23.4269868 C111.742583,23.5049385 111.717843,23.5701261 111.680951,23.6225498 C111.643625,23.6745176 111.581559,23.7132655 111.494754,23.7524692 C111.420536,23.7784531 111.308557,23.817201 111.160121,23.8308768 C111.023837,23.8564048 110.83764,23.8696247 110.627138,23.8696247 C110.416635,23.8696247 110.230438,23.8564048 110.094589,23.8308768 C109.945718,23.817201 109.833739,23.7784531 109.747368,23.7524692 C109.660563,23.7132655 109.598498,23.6745176 109.573324,23.6225498 C109.536432,23.5701261 109.511693,23.5049385 109.511693,23.4269868 L109.511693,7.17246619 C109.511693,6.82054399 109.598498,6.57301322 109.784695,6.42987388 C109.957871,6.28673454 110.144067,6.22154688 110.341983,6.22154688 L113.899254,6.22154688 C114.320693,6.22154688 114.667913,6.23476675 114.953067,6.24753077 C115.225635,6.27351466 115.485616,6.29949856 115.709139,6.32548245 C116.353233,6.44309375 116.923542,6.62543686 117.419199,6.88573165 C117.91529,7.13326242 118.324142,7.45874487 118.658775,7.84941498 C119.005995,8.22732108 119.253824,8.68317885 119.414847,9.17824039 C119.588891,9.68606595 119.675262,10.2330953 119.675262,10.8453123 C119.675262,11.4315454 119.601044,11.9521349 119.452173,12.4212126 C119.29115,12.8898344 119.080648,13.3069442 118.795059,13.6584106 C118.509904,14.0103328 118.163118,14.3225954 117.766419,14.583346 C117.36972,14.8436408 116.936129,15.0651877 116.440472,15.2475308 C116.71304,15.3779061 116.960868,15.5342653 117.196544,15.7293724 C117.419199,15.9244796 117.617983,16.1592463 117.816332,16.432761 C118.014682,16.7062756 118.20001,17.0185382 118.361034,17.3704604 C118.535078,17.7219268 118.708254,18.1258167 118.882298,18.5689105 L120.381855,22.4368637 C120.505553,22.762802 120.580205,22.9971129 120.60451,23.1274882 C120.641837,23.2574077 120.66701,23.3613433 120.66701,23.4269868 Z M104.231775,23.400547 C104.231775,23.4789546 104.206602,23.5441422 104.181862,23.608874 C104.14497,23.6612977 104.095057,23.7132655 104.008252,23.7524692 C103.921881,23.7784531 103.79775,23.817201 103.661466,23.8308768 C103.512595,23.8564048 103.326833,23.8696247 103.091157,23.8696247 C102.79385,23.8696247 102.546021,23.8564048 102.347672,23.8308768 C102.161475,23.804437 102.025625,23.7524692 101.926233,23.6745176 C101.827275,23.608874 101.752623,23.5181583 101.690557,23.4269868 L95.5430235,14.6485337 L95.5430235,23.4269868 C95.5430235,23.4921744 95.5304367,23.5569062 95.4935446,23.6225498 C95.4562184,23.6745176 95.4067395,23.7132655 95.3073478,23.7524692 C95.2331294,23.7784531 95.1089982,23.817201 94.9727143,23.8308768 C94.8242776,23.8564048 94.6506675,23.8696247 94.4397313,23.8696247 C94.229229,23.8696247 94.0551849,23.8564048 93.9071823,23.8308768 C93.7583116,23.817201 93.6463331,23.7784531 93.559962,23.7524692 C93.473157,23.7132655 93.4110914,23.6745176 93.3737652,23.6225498 C93.336439,23.5569062 93.3242863,23.4921744 93.3242863,23.4269868 L93.3242863,6.57301322 C93.3242863,6.49506154 93.336439,6.42987388 93.3737652,6.37790609 C93.4110914,6.32548245 93.473157,6.28673454 93.559962,6.24753077 C93.6463331,6.22154688 93.7583116,6.19556298 93.9071823,6.16957909 C94.0551849,6.14313934 94.229229,6.13037532 94.4397313,6.13037532 C94.6506675,6.13037532 94.8242776,6.14313934 94.9727143,6.16957909 C95.1089982,6.19556298 95.2331294,6.22154688 95.3073478,6.24753077 C95.4067395,6.28673454 95.4562184,6.32548245 95.4935446,6.37790609 C95.5304367,6.42987388 95.5430235,6.49506154 95.5430235,6.57301322 L95.5430235,14.375019 L101.467902,6.57301322 C101.517381,6.48184167 101.56686,6.41710986 101.641078,6.36468622 C101.703144,6.31271843 101.789949,6.27351466 101.888907,6.23476675 C101.988299,6.208327 102.111996,6.18234311 102.260867,6.16957909 C102.39715,6.14313934 102.582913,6.13037532 102.806436,6.13037532 C103.029091,6.13037532 103.203135,6.14313934 103.351572,6.16957909 C103.487856,6.19556298 103.5994,6.22154688 103.674053,6.26075065 C103.760858,6.28673454 103.810337,6.33870232 103.847229,6.39067011 C103.872402,6.44309375 103.896708,6.50782556 103.896708,6.57301322 C103.896708,6.69062453 103.859382,6.80732411 103.810337,6.92493542 C103.747837,7.04209087 103.648879,7.2112141 103.487856,7.4195411 L97.9475235,14.375019 L103.909295,22.7108342 C104.057731,22.9446893 104.14497,23.1010485 104.181862,23.19222 C104.206602,23.2838474 104.231775,23.3485792 104.231775,23.400547 Z M78.3521681,21.3040571 C78.3521681,21.4604164 78.3521681,21.5771159 78.3395814,21.6947272 C78.3274287,21.7991187 78.3148419,21.8898344 78.3022552,21.9682419 C78.2775158,22.0461936 78.2527763,22.1246011 78.2158842,22.1893329 C78.178558,22.2549764 78.1164924,22.3329281 78.0296873,22.4108798 C77.9428823,22.5152712 77.7697062,22.6451907 77.4967043,22.8407537 C77.2119837,23.0230968 76.8647635,23.2054399 76.4559117,23.375019 C76.0466259,23.5569062 75.5878612,23.7005014 75.0548782,23.817201 C74.5218951,23.9480322 73.9398672,24 73.3074924,24 C72.2289396,24 71.2497786,23.817201 70.3700094,23.4397508 C69.5023929,23.0623006 68.7463209,22.5020514 68.1386855,21.746695 C67.5193315,21.0045586 67.0484141,20.092843 66.7133466,18.9983285 C66.3787131,17.9047257 66.2176897,16.6543079 66.2176897,15.2343109 C66.2176897,13.775566 66.3912998,12.4731804 66.7506727,11.3271539 C67.1100457,10.1938915 67.6182892,9.23020818 68.2628168,8.43564808 C68.9073443,7.64108798 69.675569,7.04209087 70.5805117,6.62543686 C71.4854544,6.208327 72.4893548,6 73.5800603,6 C74.0635644,6 74.5344819,6.03920377 74.9932466,6.13037532 C75.4520113,6.23476675 75.8730158,6.35146634 76.2571281,6.49506154 C76.6416745,6.63820088 76.9888947,6.80732411 77.2983548,6.98966722 C77.5960961,7.17246619 77.8065983,7.32882541 77.9181428,7.45874487 C78.0422741,7.57590032 78.1164924,7.66707187 78.1538186,7.73225954 C78.178558,7.7974472 78.2158842,7.86263486 78.2280369,7.95380641 C78.2527763,8.04497797 78.265363,8.14891354 78.2901025,8.26652484 C78.3022552,8.38368029 78.3022552,8.52681963 78.3022552,8.68317885 C78.3022552,8.86552196 78.2901025,9.02188117 78.2775158,9.1522565 C78.2527763,9.28217596 78.2280369,9.38656739 78.1911447,9.46451907 C78.1659713,9.55569062 78.1164924,9.62087829 78.0670135,9.66008205 C78.0296873,9.69882997 77.9676217,9.72481386 77.9059901,9.72481386 C77.7818589,9.72481386 77.6082488,9.63409816 77.3851598,9.45175505 C77.1746576,9.28217596 76.9020897,9.08661298 76.5548695,8.87828597 C76.2076493,8.65719496 75.7987975,8.46163197 75.3031406,8.29250874 C74.8074838,8.11016563 74.2245878,8.01899407 73.5431682,8.01899407 C72.7866621,8.01899407 72.1173952,8.18811731 71.5101938,8.48761586 C70.8904057,8.81309831 70.3700094,9.26895609 69.9364182,9.86840906 C69.5023929,10.480626 69.1677594,11.2227625 68.9320837,12.0957301 C68.6842553,12.9682419 68.5727108,13.971129 68.5727108,15.0911716 C68.5727108,16.2112141 68.6842553,17.2013372 68.9073443,18.0478651 C69.14302,18.9076128 69.4776535,19.6237654 69.899092,20.1967786 C70.3326833,20.7830117 70.8535136,21.2128856 71.4733017,21.5123841 C72.1052424,21.7991187 72.8118356,21.955022 73.6047997,21.955022 C74.261914,21.955022 74.8565286,21.8638505 75.3526195,21.6947272 C75.8482763,21.5123841 76.2697149,21.3295852 76.6169351,21.1212582 C76.976308,20.9001671 77.2614626,20.717824 77.4845516,20.5354809 C77.7076406,20.3659018 77.8934034,20.2879502 78.0175346,20.2879502 C78.0796002,20.2879502 78.1290791,20.30117 78.178558,20.3271539 C78.2158842,20.3531378 78.2527763,20.4051056 78.2775158,20.4702933 C78.3022552,20.5614648 78.3274287,20.6654004 78.3395814,20.7957757 C78.3521681,20.926151 78.3521681,21.0957301 78.3521681,21.3040571 Z M59.0536687,18.8811731 C59.0536687,18.3605835 58.9794504,17.9047257 58.817993,17.5008357 C58.6569696,17.1101656 58.4217279,16.7714633 58.1239866,16.4979486 C57.8140925,16.224434 57.4299802,16.016107 56.9712154,15.8725118 C56.5128848,15.7425923 55.9299888,15.6641848 55.2359824,15.6641848 L52.5715013,15.6641848 L52.5715013,21.8638505 L55.8062916,21.8638505 C56.3145352,21.8638505 56.7607132,21.7991187 57.1326728,21.6815074 C57.5167852,21.5515879 57.838832,21.3560249 58.1365733,21.1084941 C58.4217279,20.8609634 58.6443828,20.5487008 58.8058402,20.1840146 C58.9668636,19.8061085 59.0536687,19.3762346 59.0536687,18.8811731 Z M58.0497682,10.8840602 C58.0497682,10.4541863 58.0002894,10.0767361 57.8887449,9.72481386 C57.7767663,9.38656739 57.6035903,9.08661298 57.3557618,8.85230208 C57.1074994,8.60477131 56.7980394,8.4224282 56.413493,8.29250874 C56.0293806,8.17489743 55.5089843,8.11016563 54.8766095,8.11016563 L52.5715013,8.11016563 L52.5715013,13.8015499 L55.1122852,13.8015499 C55.6821604,13.8015499 56.1409251,13.7235982 56.500298,13.567239 C56.859671,13.4108798 57.1448256,13.1893329 57.3805013,12.9290381 C57.615743,12.6555235 57.7767663,12.3432609 57.8887449,11.9913387 C58.0002894,11.6398724 58.0497682,11.2619663 58.0497682,10.8840602 Z M61.3839503,18.7507978 C61.3839503,19.2978271 61.3218847,19.8061085 61.1856008,20.2751861 C61.0493168,20.7438079 60.86312,21.1604619 60.6152916,21.5379122 C60.3796159,21.9030542 60.0823086,22.2285367 59.7476751,22.5152712 C59.4130416,22.7887859 59.0289292,23.0230968 58.594904,23.2186598 C58.1734654,23.400547 57.7151348,23.5441422 57.2316306,23.6353138 C56.7359738,23.7397052 56.1782513,23.7784531 55.5458765,23.7784531 L51.1830545,23.7784531 C50.9847049,23.7784531 50.7989421,23.7132655 50.625332,23.5701261 C50.4395692,23.4269868 50.3527642,23.19222 50.3527642,22.8407537 L50.3527642,7.17246619 C50.3527642,6.82054399 50.4395692,6.57301322 50.625332,6.42987388 C50.7989421,6.28673454 50.9847049,6.22154688 51.1830545,6.22154688 L54.988154,6.22154688 C55.9799017,6.22154688 56.7980394,6.31271843 57.4421329,6.52104543 C58.0745077,6.71660842 58.6074907,7.0028871 59.0410819,7.38079319 C59.4625205,7.7714633 59.7850012,8.22732108 60.0080902,8.78711442 C60.2185925,9.33414375 60.330137,9.95958061 60.330137,10.6497493 C60.330137,11.0796232 60.2806581,11.4702933 60.1817003,11.8481994 C60.0823086,12.2256496 59.9460246,12.5775718 59.7602618,12.9030542 C59.574065,13.2285367 59.350976,13.5152712 59.0662554,13.762802 C58.7811008,14.0230968 58.45862,14.2314238 58.0992471,14.387783 C58.5580118,14.4789546 58.9916031,14.6485337 59.3883022,14.8828446 C59.7728485,15.1303753 60.1196347,15.4298739 60.416942,15.80778 C60.7146834,16.1720103 60.9499251,16.6151041 61.1235352,17.1101656 C61.2971453,17.6047713 61.3839503,18.1522565 61.3839503,18.7507978 Z M45.4938513,7.22443398 C45.4938513,7.39355721 45.4816986,7.53715241 45.4569592,7.66707187 C45.4443724,7.78468318 45.419633,7.88861875 45.3823068,7.96657043 C45.3328279,8.04497797 45.2959358,8.11016563 45.2334361,8.13614952 C45.1839573,8.17489743 45.1223257,8.18811731 45.0476733,8.18811731 L40.3623706,8.18811731 L40.3623706,23.4269868 C40.3623706,23.5049385 40.3376311,23.5701261 40.300739,23.6225498 C40.2634128,23.6745176 40.2139339,23.7132655 40.1271289,23.7524692 C40.0403238,23.7784531 39.9287793,23.817201 39.7803427,23.8308768 C39.6436247,23.8564048 39.4578619,23.8696247 39.2473597,23.8696247 C39.0364234,23.8696247 38.8628133,23.8564048 38.7139426,23.8308768 C38.5776587,23.817201 38.4539615,23.7784531 38.3671564,23.7524692 C38.2803514,23.7132655 38.2182858,23.6745176 38.1935463,23.6225498 C38.1562202,23.5701261 38.1314807,23.5049385 38.1314807,23.4269868 L38.1314807,8.18811731 L33.446178,8.18811731 C33.3719597,8.18811731 33.309894,8.17489743 33.2604152,8.13614952 C33.1983495,8.11016563 33.1488707,8.04497797 33.1241312,7.96657043 C33.0868051,7.88861875 33.0620656,7.78468318 33.0373262,7.66707187 C33.0125867,7.53715241 33,7.39355721 33,7.22443398 C33,7.04209087 33.0125867,6.89895153 33.0373262,6.7685762 C33.0620656,6.63820088 33.0868051,6.53380945 33.1241312,6.45585777 C33.1488707,6.36468622 33.1983495,6.31271843 33.2604152,6.27351466 C33.309894,6.23476675 33.3719597,6.22154688 33.446178,6.22154688 L45.0476733,6.22154688 C45.1223257,6.22154688 45.1839573,6.23476675 45.2334361,6.27351466 C45.2959358,6.31271843 45.3328279,6.36468622 45.3823068,6.45585777 C45.419633,6.53380945 45.4443724,6.63820088 45.4569592,6.7685762 C45.4816986,6.89895153 45.4938513,7.04209087 45.4938513,7.22443398 Z" id="Fill-6"></path>
            </g>
        </g>
    </g>
</svg>