<?xml version="1.0" encoding="UTF-8"?>
<svg width="30px" height="12px" viewBox="0 0 30 12" version="1.1" xmlns="http://www.w3.org/2000/svg" xmlns:xlink="http://www.w3.org/1999/xlink">
    <!-- Generator: Sketch 48.2 (47327) - http://www.bohemiancoding.com/sketch -->
    <title>Fill 1 Copy</title>
    <desc>Created with Sketch.</desc>
    <defs></defs>
    <g id="3" stroke="none" stroke-width="1" fill="none" fill-rule="evenodd" transform="translate(-318.000000, -214.000000)">
        <path d="M347.134259,219.162639 L320.955736,219.162639 L324.816071,215.429031 C325.154443,215.102288 325.154443,214.571981 324.816071,214.245238 C324.477887,213.918254 323.92958,213.918254 323.591959,214.245238 L318.253638,219.407968 C317.915454,219.73471 317.915454,220.265018 318.253638,220.59176 L323.591959,225.754731 C323.760895,225.918345 323.98258,226 324.204015,226 C324.42545,226 324.647073,225.918345 324.816071,225.754731 C325.154443,225.427747 325.154443,224.897681 324.816071,224.570697 L320.955736,220.837029 L347.134259,220.837029 C347.612316,220.837029 348,220.462115 348,219.999864 C348,219.537553 347.612316,219.162639 347.134259,219.162639 Z" id="Fill-1-Copy" fill="#E2E2E2" transform="translate(333.000000, 220.000000) scale(-1, 1) translate(-333.000000, -220.000000) "></path>
    </g>
</svg>