<?xml version="1.0" encoding="UTF-8"?>
<svg width="180px" height="44px" viewBox="0 0 180 44" version="1.1" xmlns="http://www.w3.org/2000/svg" xmlns:xlink="http://www.w3.org/1999/xlink">
    <!-- Generator: Sketch 49.3 (51167) - http://www.bohemiancoding.com/sketch -->
    <title>Page 1</title>
    <desc>Created with Sketch.</desc>
    <defs>
        <polygon id="path-1" points="0 0.0296069978 22.6232935 0.0296069978 22.6232935 40.3909284 0 40.3909284"></polygon>
        <polygon id="path-3" points="0.0521463992 0.0569848298 45.6075747 0.0569848298 45.6075747 14.1428571 0.0521463992 14.1428571"></polygon>
        <polygon id="path-5" points="0 43.9704571 179.775079 43.9704571 179.775079 0.314285714 0 0.314285714"></polygon>
    </defs>
    <g id="index" stroke="none" stroke-width="1" fill="none" fill-rule="evenodd">
        <g id="index-copy" transform="translate(-31.000000, -62.000000)">
            <g id="Page-1" transform="translate(31.000000, 62.000000)">
                <g id="Group-3" transform="translate(0.000000, 0.284743)">
                    <mask id="mask-2" fill="white">
                        <use xlink:href="#path-1"></use>
                    </mask>
                    <g id="Clip-2"></g>
                    <path d="M21.6796963,24.2036457 C21.8779162,26.2634743 21.9822094,27.3355029 20.3116335,29.0980171 C18.5845131,30.9189886 14.2315288,34.2956743 9.77519372,36.8696743 C7.90419895,37.9505029 5.36817801,39.26076 3.44409424,39.9606743 C2.01791623,40.4754743 0.818544503,40.6923314 0.222628272,39.6599029 C-0.161560209,38.9942457 0.0262931937,38.3835886 0.228596859,37.8423886 C1.77791623,33.6407029 6.24210471,25.7995886 9.14943455,20.6977886 C9.44692147,20.1760743 9.75351832,19.6424171 10.0673403,19.1002743 C14.5428377,11.3707314 20.4806387,1.90947429 21.6479686,0.393045714 C21.8169738,0.17336 22.1223141,-0.0830971429 22.4078639,0.0825314286 C22.6387539,0.216417143 22.6406387,0.494874286 22.6085969,0.68376 C22.6026283,0.717702857 22.5338325,0.994588571 22.5071309,1.10396 C20.5833613,8.91521714 20.7900628,16.5705886 21.6796963,24.2036457" id="Fill-1" fill="#00ADEE" mask="url(#mask-2)"></path>
                </g>
                <path d="M28.2188796,26.89434 C26.3368901,26.03634 25.3567853,25.5906829 24.666,23.2615114 C23.9535393,20.8550257 23.2071518,15.39494 23.2071518,10.24694 C23.2071518,8.08528286 23.3409738,5.23282571 23.6972042,3.21605429 C23.964534,1.72288286 24.3766806,0.575111429 25.568199,0.575111429 C26.3368901,0.575111429 26.7713403,1.04308286 27.1388796,1.48905429 C30.0009738,4.93205429 34.5562618,12.7206829 37.5185654,17.79074 C37.8217068,18.3093114 38.1301885,18.8417114 38.4427539,19.3847971 C42.8956335,27.1272257 48.1165759,37.0023971 48.8453717,38.7724543 C48.9509215,39.0285971 49.0203455,39.42114 48.7344817,39.5858257 C48.5029634,39.7190829 48.2610785,39.5814257 48.1134346,39.4591686 C48.0870471,39.4371686 47.8819162,39.2388543 47.800555,39.1609114 C42.0009738,33.5886257 35.2709215,29.9400829 28.2188796,26.89434" id="Fill-4" fill="#00ADEE"></path>
                <g id="Group-8" transform="translate(1.570681, 29.827600)">
                    <mask id="mask-4" fill="white">
                        <use xlink:href="#path-3"></use>
                    </mask>
                    <g id="Clip-7"></g>
                    <path d="M21.2959162,1.52966 C22.9796859,0.327831429 23.8554974,-0.298225714 26.2168586,0.267488571 C28.6567539,0.853631429 33.7558115,2.93703143 38.2121466,5.51103143 C40.0831414,6.59154571 42.4853403,8.13406 44.0528796,9.45091714 C45.2120419,10.4289743 45.9995812,11.3598886 45.4033508,12.3926314 C45.0194764,13.0586029 44.3968586,13.2009743 43.827644,13.2962029 C39.4159162,14.0548886 30.3961257,14.1073743 24.526178,14.1391171 C23.9258639,14.1425743 23.3104712,14.1435171 22.6843979,14.1425743 C13.7560209,14.1293743 2.59759162,13.71546 0.70052356,13.46246 C0.425968586,13.4256886 0.0518324607,13.2892886 0.0521465969,12.9589743 C0.0527748691,12.69246 0.293089005,12.5513457 0.472460733,12.4844029 C0.504502618,12.47246 0.778743455,12.3938886 0.886806283,12.3627743 C8.61015707,10.1238029 15.1335079,6.11697429 21.2959162,1.52966" id="Fill-6" fill="#00ADEE" mask="url(#mask-4)"></path>
                </g>
                <polygon id="Fill-9" fill="#6C6E70" points="65.3320524 22.3602029 65.3320524 35.9313743 61.4829424 35.9313743 61.4829424 22.3602029 57.1535183 22.3602029 57.1535183 19.1972314 69.6633613 19.1972314 69.6633613 22.3602029"></polygon>
                <path d="M79.2294974,32.85964 C79.5646806,32.7373829 79.8015393,32.5239829 79.9400733,32.2178686 C80.0776649,31.9117543 80.147089,31.4616971 80.147089,30.8654971 C80.147089,30.2696114 80.0776649,29.8189257 79.9400733,29.5131257 C79.8015393,29.2070114 79.5615393,28.9932971 79.2185026,28.8713543 C78.8748377,28.7490971 78.3731623,28.6874971 77.7175602,28.6874971 L75.7017487,28.6874971 L75.7017487,33.0425543 L77.7175602,33.0425543 C78.3882408,33.0425543 78.894,32.9822114 79.2294974,32.85964 Z M78.8509634,25.8331543 C79.134,25.7178114 79.3315916,25.5232686 79.4471937,25.2492114 C79.5615393,24.9738971 79.6190262,24.5609257 79.6190262,24.0106114 C79.6190262,23.4609257 79.5615393,23.04764 79.4471937,22.77264 C79.3315916,22.4973257 79.134,22.3034114 78.8509634,22.1886971 C78.5688691,22.0739829 78.153267,22.0161543 77.6032147,22.0161543 L75.7017487,22.0161543 L75.7017487,26.0050686 L77.5790262,26.0050686 C78.1444712,26.0050686 78.5688691,25.9478686 78.8509634,25.8331543 Z M77.9927435,19.1970114 C81.4743141,19.1970114 83.2158848,20.68704 83.2158848,23.6670971 C83.2158848,24.7369257 82.9714869,25.57324 82.4830052,26.1772971 C81.9948377,26.7807257 81.2993403,27.1138686 80.398712,27.1745257 C81.5283455,27.2354971 82.4035288,27.6022686 83.0220628,28.2751543 C83.6393403,28.9477257 83.9487644,29.8868114 83.9487644,31.0939829 C83.9487644,34.3198114 81.9948377,35.93084 78.0841571,35.93084 L71.9886597,35.93084 L71.9886597,19.1970114 L77.9927435,19.1970114 Z" id="Fill-11" fill="#6C6E70"></path>
                <path d="M87.7976859,34.0286886 C86.5298325,32.6071743 85.8971623,30.4602886 85.8971623,27.5867743 C85.8971623,21.8406886 88.4410366,18.9678029 93.525644,18.9678029 C94.8255393,18.9678029 96.0019791,19.1504029 97.0559058,19.5181171 L96.345644,22.5899457 C95.6275288,22.20746 94.7642827,22.01606 93.7555916,22.01606 C92.6721361,22.01606 91.8494136,22.1735171 91.291822,22.4862314 C90.7348586,22.79926 90.3412461,23.3495743 90.1134974,24.13686 C89.8844921,24.92446 89.7682618,26.0734886 89.7682618,27.5867743 C89.7682618,29.0849743 89.8807225,30.21986 90.1003037,30.9914314 C90.3220838,31.7626886 90.7119267,32.3020029 91.2698325,32.6071743 C91.8271099,32.9129743 92.6331832,33.0660314 93.6861675,33.0660314 C94.8776859,33.0660314 95.879466,32.82906 96.6886806,32.3551171 L97.3763246,35.4957743 C96.2611414,35.9389171 94.9782094,36.1608029 93.525644,36.1608029 C90.9748586,36.1608029 89.0655393,35.4495743 87.7976859,34.0286886" id="Fill-13" fill="#6C6E70"></path>
                <polygon id="Fill-15" fill="#6C6E70" points="108.388618 27.5984029 108.388618 35.9037171 106.576995 35.9037171 106.576995 19.1554314 108.388618 19.1554314 108.388618 27.1166029 115.062126 19.1554314 117.355005 19.1554314 110.223173 27.3460314 118.020031 35.9037171 115.566628 35.9037171"></polygon>
                <path d="M128.052503,26.9787571 C128.534073,26.7801286 128.874283,26.4438429 129.073131,25.9692714 C129.271665,25.4953286 129.371246,24.8145857 129.371246,23.9273571 C129.371246,23.0558429 129.271665,22.3867286 129.073131,21.9203286 C128.874283,21.4536143 128.534073,21.1248714 128.052503,20.9334714 C127.571246,20.7427 126.886743,20.6468429 126.000251,20.6468429 L122.652188,20.6468429 L122.652188,27.2770143 L125.977319,27.2770143 C126.879204,27.2770143 127.571246,27.1780143 128.052503,26.9787571 Z M126.091979,19.1555571 C129.45512,19.1555571 131.137005,20.7464714 131.137005,23.9273571 C131.137005,26.6808143 129.784021,28.2409286 127.077738,28.6080143 L131.733236,35.9035286 L129.600565,35.9035286 L125.15177,28.7227286 L122.698052,28.7227286 L122.698052,35.9035286 L120.886429,35.9035286 L120.886429,19.1555571 L126.091979,19.1555571 Z" id="Fill-17" fill="#6C6E70"></path>
                <polygon id="Fill-19" fill="#6C6E70" points="144.575026 35.9036543 134.897435 35.9036543 134.897435 19.1553686 144.345707 19.1553686 144.345707 20.69254 136.709372 20.69254 136.709372 26.6117971 143.680366 26.6117971 143.680366 28.1489686 136.709372 28.1489686 136.709372 34.3205971 144.575026 34.3205971"></polygon>
                <path d="M156.178429,33.7242086 C156.881466,33.3263229 157.378429,32.6496657 157.669005,31.6936086 C157.959267,30.7378657 158.105026,29.3650657 158.105026,27.5755229 C158.105026,25.7400943 157.959267,24.3368086 157.669005,23.3653514 C157.378429,22.3945229 156.881466,21.7100086 156.178429,21.3121229 C155.475393,20.9145514 154.466387,20.7156086 153.151414,20.7156086 L149.941257,20.7156086 L149.941257,34.3204086 L153.151414,34.3204086 C154.466387,34.3204086 155.475393,34.1220943 156.178429,33.7242086 Z M153.151414,19.1554943 C157.676859,19.1554943 159.939581,21.96238 159.939581,27.5755229 C159.939581,30.3594657 159.377592,32.44318 158.253613,33.8272943 C157.130262,35.2117229 155.429215,35.90378 153.151414,35.90378 L148.129319,35.90378 L148.129319,19.1554943 L153.151414,19.1554943 Z" id="Fill-21" fill="#6C6E70"></path>
                <mask id="mask-6" fill="white">
                    <use xlink:href="#path-5"></use>
                </mask>
                <g id="Clip-24"></g>
                <polygon id="Fill-23" fill="#6C6E70" mask="url(#mask-6)" points="163.837696 35.9036857 165.695183 35.9036857 165.695183 19.1554 163.837696 19.1554"></polygon>
                <polygon id="Fill-25" fill="#6C6E70" mask="url(#mask-6)" points="175.097152 20.8073486 175.097152 35.9037486 173.262597 35.9037486 173.262597 20.8073486 168.584482 20.8073486 168.584482 19.1554629 179.775267 19.1554629 179.775267 20.8073486"></polygon>
            </g>
        </g>
    </g>
</svg>