<?xml version="1.0" encoding="UTF-8"?>
<svg width="22px" height="20px" viewBox="0 0 22 20" version="1.1" xmlns="http://www.w3.org/2000/svg" xmlns:xlink="http://www.w3.org/1999/xlink">
    <!-- Generator: Sketch 48.2 (47327) - http://www.bohemiancoding.com/sketch -->
    <title>online_payment</title>
    <desc>Created with Sketch.</desc>
    <defs></defs>
    <g id="Missions-and-Vision-Copy-2" stroke="none" stroke-width="1" fill="none" fill-rule="evenodd" transform="translate(-560.000000, -621.000000)">
        <path d="M576.146441,636.386038 L581.125635,636.386038 C581.155847,636.386038 581.18582,636.385094 581.215553,636.383737 L581.215553,639.495123 C581.215553,640.296185 580.555913,640.945389 579.742213,640.945389 L561.47358,640.945389 C560.65964,640.945389 560,640.296185 560,639.495123 L560,626.391996 C560,625.59117 560.65964,624.941967 561.47358,624.941967 L579.742213,624.941967 C580.555913,624.941967 581.215553,625.59117 581.215553,626.392232 L581.215553,629.503678 C581.18582,629.502262 581.155847,629.501377 581.125635,629.501377 L576.146441,629.501377 C575.092659,629.501377 574.235439,630.345035 574.235439,631.382085 L574.235439,634.505271 C574.235439,635.542321 575.092659,636.386038 576.146441,636.386038 Z M581.125635,630.531937 C581.602621,630.531937 581.98945,630.912468 581.98945,631.382085 L581.98945,634.505271 C581.98945,634.974946 581.602621,635.355418 581.125635,635.355418 L576.146441,635.355418 C575.669215,635.355418 575.282567,634.974946 575.282567,634.505271 L575.282567,631.382085 C575.282567,630.912468 575.669215,630.531937 576.146441,630.531937 L581.125635,630.531937 Z M577.176485,622.285743 L577.593766,623.529046 L567.287335,623.529046 L574.77303,621.094946 C575.770823,620.770698 576.846785,621.303737 577.176485,622.285743 Z" id="online_payment" fill="#11B3F1"></path>
    </g>
</svg>