<?xml version="1.0" encoding="UTF-8"?>
<svg width="40px" height="46px" viewBox="0 0 40 46" version="1.1" xmlns="http://www.w3.org/2000/svg" xmlns:xlink="http://www.w3.org/1999/xlink">
    <!-- Generator: Sketch 47.1 (45422) - http://www.bohemiancoding.com/sketch -->
    <title>pdf</title>
    <desc>Created with Sketch.</desc>
    <defs></defs>
    <g id="Desktop" stroke="none" stroke-width="1" fill="none" fill-rule="evenodd">
        <g id="Product-Copy" transform="translate(-1052.000000, -174.000000)" fill-rule="nonzero">
            <g id="pdf" transform="translate(1052.000000, 174.000000)">
                <path d="M2.85712174,0 L27.1328268,0 L40,12.8972894 L40,43.1250279 C40,44.7134094 38.7200674,46 37.1428783,46 L2.85712174,46 C1.2799326,46 0,44.7134094 0,43.1250279 L0,2.87497211 C0,1.28659055 1.28008041,0 2.85712174,0 Z" id="Shape" fill="#ECECEC"></path>
                <path d="M40,13 L29.8982019,13 C28.2983357,13 27,11.7029658 27,10.1047034 L27,0 L40,13 Z" id="Shape" fill="#B0B0B0"></path>
                <path d="M29.2864276,21.7296868 C29.7654961,21.7296868 30,21.2908899 30,20.8656208 C30,20.4252691 29.7554354,20 29.2864276,20 L26.5581932,20 C26.0248263,20 25.7274429,20.4642974 25.7274429,20.9767972 L25.7274429,28.0232028 C25.7274429,28.6513882 26.0677324,29 26.528159,29 C26.9857744,29 27.3275435,28.6513882 27.3275435,28.0232028 L27.3275435,26.0892003 L28.9776519,26.0892003 C29.4895657,26.0892003 29.7455226,25.6488485 29.7455226,25.2116066 C29.7455226,24.7833831 29.4895657,24.3579586 28.9776519,24.3579586 L27.3275435,24.3579586 L27.3275435,21.7296868 C27.3275435,21.7296868 29.2864276,21.7296868 29.2864276,21.7296868 Z M20.0650249,20 L18.0688568,20 C17.5269088,20 17.1422336,20.39075 17.1422336,20.9707331 L17.1422336,28.0292669 C17.1422336,28.7490368 17.695574,28.9744994 18.0916415,28.9744994 L20.1864935,28.9744994 C22.6658727,28.9744994 24.3031092,27.2598953 24.3031092,24.613431 C24.3017776,21.8153626 22.760414,20 20.0650249,20 Z M20.1608978,27.2343947 L18.9439928,27.2343947 L18.9439928,21.7402602 L20.0407608,21.7402602 C21.7009299,21.7402602 22.4229355,22.9109552 22.4229355,24.5263558 C22.4229355,26.0381991 21.7136537,27.2343947 20.1608978,27.2343947 Z M12.8483714,20 L10.8708453,20 C10.3117348,20 10,20.3876402 10,20.9767972 L10,28.0232028 C10,28.6513882 10.357452,29 10.837852,29 C11.3182521,29 11.6757041,28.6513882 11.6757041,28.0232028 L11.6757041,25.9658955 L12.9153937,25.9658955 C14.445365,25.9658955 15.7079872,24.8267653 15.7079872,22.9949206 C15.7081351,21.2022598 14.4898986,20 12.8483714,20 Z M12.8155261,24.3130215 L11.675852,24.3130215 L11.675852,21.6545844 L12.8155261,21.6545844 C13.5190377,21.6545844 13.9665924,22.2316131 13.9665924,22.9845027 C13.9651129,23.7359928 13.5190377,24.3130215 12.8155261,24.3130215 Z" id="Shape" fill="#E2574C"></path>
            </g>
        </g>
    </g>
</svg>