<?xml version="1.0" encoding="UTF-8"?>
<svg width="76px" height="74px" viewBox="0 0 76 74" version="1.1" xmlns="http://www.w3.org/2000/svg" xmlns:xlink="http://www.w3.org/1999/xlink">
    <!-- Generator: Sketch 48.2 (47327) - http://www.bohemiancoding.com/sketch -->
    <title>Group 4 Copy</title>
    <desc>Created with Sketch.</desc>
    <defs>
        <linearGradient x1="71.4971809%" y1="-15.765201%" x2="10.0595853%" y2="100%" id="linearGradient-1">
            <stop stop-color="#000000" stop-opacity="0" offset="0%"></stop>
            <stop stop-color="#000000" stop-opacity="0.229194973" offset="100%"></stop>
        </linearGradient>
        <filter x="-24.2%" y="-49.9%" width="148.5%" height="199.8%" filterUnits="objectBoundingBox" id="filter-2">
            <feGaussianBlur stdDeviation="-4.23659571 0.194791303" in="SourceGraphic"></feGaussianBlur>
        </filter>
    </defs>
    <g id="Branches" stroke="none" stroke-width="1" fill="none" fill-rule="evenodd" transform="translate(-1060.000000, -432.000000)">
        <g id="Group-4" transform="translate(927.000000, 280.000000)">
            <g id="Group-4-Copy" transform="translate(133.000000, 152.000000)">
                <path d="M55.5246099,53.138565 C61.1162574,53.138565 62.588636,55.3500301 58.806875,58.0684213 C55.025016,60.7868829 47.3995624,62.998348 41.8079149,62.998348 C36.2162674,62.998348 34.743744,60.7868829 38.5256029,58.0684213 C42.307364,55.3500301 49.9329624,53.138565 55.5246099,53.138565 Z M27.9803431,72.9378311 L53.7376735,65.467923 C67.9401953,61.349078 77.2636928,54.6470926 74.5214447,50.5281068 C71.7791455,46.4092618 57.9935155,46.4090506 43.7906019,50.5281772 C29.5880801,54.6470222 20.2644378,61.3490076 23.0067838,65.467923 L27.9803431,72.9378311 Z" id="Fill-3" fill="url(#linearGradient-1)" filter="url(#filter-2)"></path>
                <path d="M29.9134884,44.4182323 C37.5588729,44.4182323 43.7792814,38.1602917 43.7792814,30.4680001 C43.7792814,22.7760572 37.5588729,16.5181166 29.9134884,16.5181166 C22.2677573,16.5181166 16.0476953,22.7760572 16.0476953,30.4680001 C16.0476953,38.1602917 22.2677573,44.4182323 29.9134884,44.4182323" id="Fill-1" fill="#000000"></path>
                <path d="M29.9134884,16.4256016 C37.6098339,16.4256016 43.8709635,22.7248599 43.8709635,30.4680742 C43.8709635,38.211489 37.6098339,44.5107473 29.9134884,44.5107473 C22.2171429,44.5107473 15.955814,38.211489 15.955814,30.4680742 C15.955814,22.7248599 22.2171429,16.4256016 29.9134884,16.4256016 Z M29.9134884,72.8229148 L51.062392,51.5452198 C62.7239203,39.8128764 62.7237209,20.7225742 51.0621927,8.98982967 C39.4008638,-2.74251374 20.4259136,-2.74311538 8.76438538,8.99003022 C-2.89714286,20.7223736 -2.89714286,39.8126758 8.76438538,51.5452198 L29.9134884,72.8229148 Z" id="Fill-3" fill="#F3E847"></path>
            </g>
        </g>
    </g>
</svg>