<?xml version="1.0" encoding="UTF-8"?>
<svg width="21px" height="21px" viewBox="0 0 21 21" version="1.1" xmlns="http://www.w3.org/2000/svg" xmlns:xlink="http://www.w3.org/1999/xlink">
    <!-- Generator: Sketch 48.2 (47327) - http://www.bohemiancoding.com/sketch -->
    <title>magnifying-glass (1)</title>
    <desc>Created with Sketch.</desc>
    <defs></defs>
    <g id="index-branches" stroke="none" stroke-width="1" fill="none" fill-rule="evenodd" transform="translate(-685.000000, -77.000000)" opacity="0.5">
        <path d="M705.818364,96.9288749 L700.713935,91.8256213 C702.08313,90.251848 702.912076,88.1983004 702.912076,85.9540772 C702.912076,81.0137943 698.892862,77 693.956038,77 C689.014673,77 685,81.0183342 685,85.9540772 C685,90.8898202 689.019214,94.9081544 693.956038,94.9081544 C696.200753,94.9081544 698.25475,94.07939 699.828868,92.7104942 L704.933239,97.8138059 C705.054446,97.9347535 705.217511,98 705.375802,98 C705.534093,98 705.697157,97.9395262 705.818364,97.8138059 C706.060545,97.5716198 706.060545,97.1710611 705.818364,96.9288749 Z M686.211538,85.9226092 C686.211538,81.6681027 689.655778,78.2115385 693.884731,78.2115385 C698.117979,78.2115385 701.557692,81.6728843 701.557692,85.9226092 C701.557692,90.1723341 698.117979,93.6384615 693.884731,93.6384615 C689.655778,93.6384615 686.211538,90.1771157 686.211538,85.9226092 Z" id="magnifying-glass-(1)" fill="#FFFFFF"></path>
    </g>
</svg>