<?xml version="1.0" encoding="UTF-8"?>
<svg width="536px" height="693px" viewBox="0 0 536 693" version="1.1" xmlns="http://www.w3.org/2000/svg" xmlns:xlink="http://www.w3.org/1999/xlink">
    <!-- Generator: Sketch 48.2 (47327) - http://www.bohemiancoding.com/sketch -->
    <title>Fill 1</title>
    <desc>Created with Sketch.</desc>
    <defs>
        <rect id="path-1" x="0" y="0" width="611" height="700"></rect>
        <linearGradient x1="14.2024133%" y1="51.9733456%" x2="93.4531897%" y2="95.6700368%" id="linearGradient-3">
            <stop stop-color="#FFFFFF" stop-opacity="0" offset="0%"></stop>
            <stop stop-color="#07B0EF" offset="100%"></stop>
        </linearGradient>
    </defs>
    <g id="Missions-and-Vision" stroke="none" stroke-width="1" fill="none" fill-rule="evenodd" transform="translate(-224.000000, -95.000000)">
        <g id="Fill-1" transform="translate(149.000000, 88.000000)">
            <mask id="mask-2" fill="white">
                <use xlink:href="#path-1"></use>
            </mask>
            <g id="Mask"></g>
            <path d="M922.926358,857 L92.2172766,856.540564 C40.303124,856.540564 55.8724114,843.87325 83.7219329,834.963469 C143.189339,815.273344 313.575521,744.011502 459.434291,631.515257 C492.473575,606.197039 513.711934,587.91804 559.973543,599.617255 C718.079491,640.40863 860.616152,735.101721 947.007517,805.428282 C972.014238,826.053688 1012.12747,857 922.926358,857 M554.91004,47.6381829 L969.318148,760.839937 C995.253736,805.264659 976.862746,798.258845 954.707712,779.074698 C908.03686,737.923721 760.941957,626.616385 589.793489,557.867737 C551.145995,541.973704 524.731647,533.085486 512.003233,487.727746 C468.634175,331.520995 479.942818,161.744571 498.333808,52.7779628 C503.534132,20.5152041 510.121211,-29.0656665 554.91004,47.6381829 M34.1965198,770.089158 L449.281181,56.2029826 C475.182727,11.7070342 478.482288,31.3809981 472.361604,59.9574307 C459.641799,120.848349 436.561376,302.602985 462.000985,484.341227 C467.643233,525.558181 472.823542,553.216496 439.844439,586.465495 C324.904263,702.164797 171.293242,777.598054 67.175623,816.470528 C36.5557053,827.701082 -10.0835768,846.440533 34.1965198,770.089158" fill="url(#linearGradient-3)" opacity="0.696161685" mask="url(#mask-2)"></path>
        </g>
    </g>
</svg>