<?xml version="1.0" encoding="UTF-8"?>
<svg width="18px" height="14px" viewBox="0 0 18 14" version="1.1" xmlns="http://www.w3.org/2000/svg" xmlns:xlink="http://www.w3.org/1999/xlink">
    <!-- Generator: Sketch 48.2 (47327) - http://www.bohemiancoding.com/sketch -->
    <title>twitter</title>
    <desc>Created with Sketch.</desc>
    <defs></defs>
    <g id="3" stroke="none" stroke-width="1" fill="none" fill-rule="evenodd" transform="translate(-1362.000000, -759.000000)">
        <g id="Group" transform="translate(1340.000000, 758.000000)" fill="#FFFFFF">
            <path d="M39.8595452,3.19781219 C39.2308948,3.46223611 38.5499686,3.64529882 37.838213,3.72538876 C38.5660535,3.31222638 39.1209815,2.65752292 39.3877223,1.87696385 C38.7067961,2.25961577 37.953488,2.53802365 37.1465636,2.68676211 C36.5085303,2.04095753 35.5916927,1.6341515 34.5810266,1.6341515 C32.6387784,1.6341515 31.062461,3.12916367 31.062461,4.97123224 C31.062461,5.23438489 31.0946307,5.48736739 31.1522682,5.73145101 C28.2248216,5.59161143 25.6338169,4.26567802 23.8953103,2.24436055 C23.5910382,2.73634159 23.4181258,3.31222638 23.4181258,3.9237067 C23.4181258,5.08056136 24.0414146,6.10393278 24.98372,6.69888661 C24.4073454,6.68490265 23.8685022,6.53107912 23.3926581,6.28191042 L23.3926581,6.32259103 C23.3926581,7.94091627 24.6070659,9.2910038 26.2142126,9.59992213 C25.9206637,9.67365572 25.6070087,9.71306505 25.2879921,9.71306505 C25.0628039,9.71306505 24.8429773,9.69399602 24.6231508,9.65458669 C25.0735272,10.9805201 26.3710401,11.9428706 27.9111666,11.9733811 C26.7061416,12.8670831 25.1874617,13.3984735 23.5387624,13.3984735 C23.2559367,13.3984735 22.9784727,13.3832182 22.7010086,13.353979 C24.2612412,14.3023456 26.109661,14.852805 28.0988234,14.852805 C34.5703033,14.852805 38.1103154,9.76772961 38.1103154,5.35896924 L38.0995922,4.92673783 C38.7912417,4.45509708 39.3877223,3.86904214 39.8595452,3.19781219 Z" id="twitter"></path>
        </g>
    </g>
</svg>