<?xml version="1.0" encoding="UTF-8"?>
<svg width="21px" height="24px" viewBox="0 0 21 24" version="1.1" xmlns="http://www.w3.org/2000/svg" xmlns:xlink="http://www.w3.org/1999/xlink">
    <!-- Generator: Sketch 48.2 (47327) - http://www.bohemiancoding.com/sketch -->
    <title>Combined Shape</title>
    <desc>Created with Sketch.</desc>
    <defs></defs>
    <g id="3" stroke="none" stroke-width="1" fill="none" fill-rule="evenodd" transform="translate(-1370.000000, -47.000000)">
        <path d="M1380.18376,58.8810541 C1376.90815,58.8810541 1374.24323,56.2161337 1374.24323,52.9405271 C1374.24323,49.6649204 1376.90815,47 1380.18376,47 C1383.45937,47 1386.12429,49.6649204 1386.12429,52.9405271 C1386.12429,56.2161337 1383.45937,58.8810541 1380.18376,58.8810541 Z M1389.6886,70.83 L1370.67892,70.83 C1370.30397,70.83 1370,70.5342706 1370,70.1694967 C1370,67.8723981 1370.91676,65.701808 1372.58142,64.0574189 C1374.25428,62.4049276 1376.47198,61.494886 1378.82593,61.494886 L1381.5416,61.494886 C1383.89558,61.494886 1386.11324,62.4049276 1387.7861,64.0574189 C1389.45076,65.701808 1390.36752,67.8723981 1390.36752,70.1694967 C1390.36752,70.5342706 1390.06355,70.83 1389.6886,70.83 Z" id="Combined-Shape" fill="#FFFFFF"></path>
    </g>
</svg>